<?xml version="1.0" encoding="UTF-8" standalone="no"?>
<!-- Created with Inkscape (http://www.inkscape.org/) -->

<svg
   version="1.1"
   id="svg2"
   width="581.33331"
   height="554.25336"
   viewBox="0 0 581.33331 554.25336"
   sodipodi:docname="2794208.eps"
   xmlns:inkscape="http://www.inkscape.org/namespaces/inkscape"
   xmlns:sodipodi="http://sodipodi.sourceforge.net/DTD/sodipodi-0.dtd"
   xmlns="http://www.w3.org/2000/svg"
   xmlns:svg="http://www.w3.org/2000/svg">
  <defs
     id="defs6" />
  <sodipodi:namedview
     id="namedview4"
     pagecolor="#ffffff"
     bordercolor="#000000"
     borderopacity="0.25"
     inkscape:showpageshadow="2"
     inkscape:pageopacity="0.0"
     inkscape:pagecheckerboard="0"
     inkscape:deskcolor="#d1d1d1" />
  <g
     id="g8"
     inkscape:groupmode="layer"
     inkscape:label="ink_ext_XXXXXX"
     transform="matrix(1.3333333,0,0,-1.3333333,0,554.25333)">
    <g
       id="g10"
       transform="scale(0.1)">
      <path
         d="m 638.516,340.82 c 851.344,-454.422 2231.654,-454.429 3082.984,-0.011 851.34,454.429 851.34,1191.201 0,1645.621 -851.35,454.43 -2231.65,454.43 -3082.996,0.01 -851.34,-454.42 -851.34,-1191.202 0.012,-1645.62"
         style="fill:#ededeb;fill-opacity:1;fill-rule:nonzero;stroke:none"
         id="path12" />
      <path
         d="m 2153.14,953.352 622.13,-357.704 c 7.17,-4.148 18.8,-4.148 25.98,0 l 1101.23,635.792 c 7.17,4.15 7.17,10.86 0,15 l -622.13,357.71 c -7.17,4.14 -18.8,4.14 -25.98,0 L 2153.14,968.352 c -7.18,-4.141 -7.18,-10.852 0,-15"
         style="fill:#dadbd8;fill-opacity:1;fill-rule:nonzero;stroke:none"
         id="path14" />
      <path
         d="m 4053.73,767.621 c -2.02,15.93 -21.11,24.008 -31.62,30.078 l -424.84,246.011 c -18.77,10.84 -42,11.25 -60.76,0.42 L 3111.8,799.18 c -12.52,-7.231 -32.99,-21.039 -32.99,-37.211 0,-16.168 11.19,-19.739 31.76,-31.629 20.58,-11.879 421.72,-243.629 421.72,-243.629 21.49,-12.422 47.97,-12.422 69.46,0 l 435.13,249.277 c 14.31,9.75 18.16,21.293 16.85,31.633"
         style="fill:#dadbd8;fill-opacity:1;fill-rule:nonzero;stroke:none"
         id="path16" />
      <path
         d="m 2605.88,2023.95 100.21,57.86 c 4.96,2.88 12.06,4.52 19.17,4.5 7.1,0.02 14.18,-1.62 19.14,-4.5 l 628.27,-362.74 5,8.66 -628.27,362.74 c -7,4.01 -15.58,5.83 -24.14,5.84 -8.57,-0.01 -17.16,-1.82 -24.17,-5.84 l -100.21,-57.86 5,-8.66"
         style="fill:#26b6a6;fill-opacity:1;fill-rule:nonzero;stroke:none"
         id="path18" />
      <path
         d="m 2565.26,2047.4 140.84,81.31 c 4.95,2.89 12.04,4.53 19.15,4.51 7.1,0.02 14.19,-1.62 19.15,-4.51 l 668.89,-386.19 5,8.66 -668.89,386.19 c -7,4.02 -15.59,5.83 -24.15,5.85 -8.57,-0.02 -17.15,-1.83 -24.15,-5.85 l -140.84,-81.31 5,-8.66"
         style="fill:#26b6a6;fill-opacity:1;fill-rule:nonzero;stroke:none"
         id="path20" />
      <path
         d="m 3458.92,1774.63 -709.52,409.65 c -7,4.01 -15.58,5.83 -24.14,5.85 -8.57,-0.02 -17.16,-1.83 -24.17,-5.85 l -181.44,-104.69 5,-8.66 181.44,104.69 c 4.96,2.89 12.05,4.52 19.17,4.51 7.1,0.01 14.18,-1.63 19.14,-4.51 l 709.52,-409.65 5,8.66"
         style="fill:#26b6a6;fill-opacity:1;fill-rule:nonzero;stroke:none"
         id="path22" />
      <path
         d="m 3499.54,1798.09 -750.14,433.09 c -7.01,4.02 -15.59,5.83 -24.16,5.85 -8.56,-0.02 -17.15,-1.83 -24.15,-5.84 l -222.21,-128.23 5,-8.66 222.21,128.22 c 4.96,2.89 12.05,4.53 19.15,4.51 7.11,0.02 14.2,-1.62 19.16,-4.51 l 750.14,-433.09 5,8.66"
         style="fill:#26b6a6;fill-opacity:1;fill-rule:nonzero;stroke:none"
         id="path24" />
      <path
         d="m 1972.29,4149.75 -647.25,-373.68 c -11.96,-6.91 -21.65,-23.7 -21.65,-37.5 V 1959.29 c 0,-13.8 9.69,-30.59 21.65,-37.5 L 1972.3,1548.1 c 11.96,-6.9 31.34,-6.9 43.3,0 l 647.23,373.69 c 11.96,6.9 21.66,23.69 21.66,37.5 v 1779.27 c 0,13.81 -9.7,30.6 -21.66,37.5 l -647.23,373.69 c -11.96,6.91 -31.35,6.91 -43.31,0"
         style="fill:#263e47;fill-opacity:1;fill-rule:nonzero;stroke:none"
         id="path26" />
      <path
         d="M 2684.46,3738.6 V 1959.3 c 0,-13.8 -9.7,-30.6 -21.6,-37.5 l -647.3,-373.7 c -5.9,-3.5 -13.8,-5.2 -21.6,-5.2 v 1829.3 c 7.8,0 15.6,1.8 21.6,5.2 l 647.3,373.7 5.9,4.9 7.7,6.4 c 4.9,-7.4 8,-16 8,-23.8"
         style="fill:#17282f;fill-opacity:1;fill-rule:nonzero;stroke:none"
         id="path28" />
      <path
         d="m 1406.28,3563.45 484.78,-279.88 c 11.95,-6.9 21.65,-23.69 21.64,-37.5 v -184.53 c 0,-13.8 -9.7,-19.4 -21.65,-12.5 l -484.76,279.89 c -11.96,6.9 -21.65,23.69 -21.65,37.5 l -0.01,184.52 c 0,13.81 9.69,19.4 21.65,12.5"
         style="fill:#33535f;fill-opacity:1;fill-rule:nonzero;stroke:none"
         id="path30" />
      <path
         d="m 1425.25,3482.14 c 0,-12.95 9.7,-29.05 21.65,-35.95 l 403.53,-232.98 c 11.96,-6.9 21.65,-2 21.65,10.95 0,12.96 -9.69,29.05 -21.65,35.96 l -403.53,232.97 c -11.95,6.9 -21.65,2 -21.65,-10.95"
         style="fill:#26b6a6;fill-opacity:1;fill-rule:nonzero;stroke:none"
         id="path32" />
      <path
         d="m 1425.25,3388.33 c 0,-12.95 9.7,-29.05 21.65,-35.95 l 403.53,-232.98 c 11.96,-6.9 21.65,-2 21.65,10.95 0,12.96 -9.69,29.05 -21.65,35.95 l -403.53,232.98 c -11.95,6.9 -21.65,2 -21.65,-10.95"
         style="fill:#17282f;fill-opacity:1;fill-rule:nonzero;stroke:none"
         id="path34" />
      <path
         d="m 1446.9,3399.28 222.08,-128.21 v -46.9 l -222.08,128.21 c -11.95,6.9 -21.65,23 -21.65,35.95 0,12.95 9.7,17.85 21.65,10.95"
         style="fill:#26b6a6;fill-opacity:1;fill-rule:nonzero;stroke:none"
         id="path36" />
      <path
         d="m 1406.28,3235.12 484.78,-279.88 c 11.95,-6.9 21.65,-23.69 21.64,-37.5 v -184.53 c 0,-13.8 -9.7,-19.4 -21.65,-12.5 l -484.76,279.88 c -11.96,6.91 -21.65,23.7 -21.65,37.5 l -0.01,184.53 c 0,13.81 9.69,19.4 21.65,12.5"
         style="fill:#33535f;fill-opacity:1;fill-rule:nonzero;stroke:none"
         id="path38" />
      <path
         d="m 1425.25,3153.81 c 0,-12.95 9.7,-29.05 21.65,-35.95 l 403.53,-232.98 c 11.96,-6.9 21.65,-2 21.65,10.95 0,12.95 -9.69,29.05 -21.65,35.96 l -403.53,232.97 c -11.95,6.9 -21.65,2 -21.65,-10.95"
         style="fill:#26b6a6;fill-opacity:1;fill-rule:nonzero;stroke:none"
         id="path40" />
      <path
         d="m 1425.25,3060 c 0,-12.95 9.7,-29.05 21.65,-35.95 l 403.53,-232.98 c 11.96,-6.9 21.65,-2 21.65,10.95 0,12.95 -9.69,29.05 -21.65,35.95 l -403.53,232.98 c -11.95,6.9 -21.65,2 -21.65,-10.95"
         style="fill:#17282f;fill-opacity:1;fill-rule:nonzero;stroke:none"
         id="path42" />
      <path
         d="m 1446.9,3070.95 343.94,-198.57 v -46.9 l -343.94,198.57 c -11.95,6.9 -21.65,23 -21.65,35.95 0,12.95 9.7,17.85 21.65,10.95"
         style="fill:#26b6a6;fill-opacity:1;fill-rule:nonzero;stroke:none"
         id="path44" />
      <path
         d="m 1406.28,2906.79 484.78,-279.88 c 11.95,-6.9 21.65,-23.69 21.64,-37.5 v -184.53 c 0,-13.81 -9.7,-19.4 -21.65,-12.5 l -484.76,279.88 c -11.96,6.91 -21.65,23.7 -21.65,37.5 l -0.01,184.53 c 0,13.8 9.69,19.4 21.65,12.5"
         style="fill:#33535f;fill-opacity:1;fill-rule:nonzero;stroke:none"
         id="path46" />
      <path
         d="m 1425.25,2825.48 c 0,-12.96 9.7,-29.05 21.65,-35.96 l 403.53,-232.97 c 11.96,-6.9 21.65,-2 21.65,10.95 0,12.95 -9.69,29.05 -21.65,35.95 l -403.53,232.98 c -11.95,6.9 -21.65,2 -21.65,-10.95"
         style="fill:#26b6a6;fill-opacity:1;fill-rule:nonzero;stroke:none"
         id="path48" />
      <path
         d="m 1425.25,2731.67 c 0,-12.96 9.7,-29.05 21.65,-35.96 l 403.53,-232.97 c 11.96,-6.91 21.65,-2 21.65,10.95 0,12.95 -9.69,29.05 -21.65,35.95 l -403.53,232.98 c -11.95,6.9 -21.65,2 -21.65,-10.95"
         style="fill:#17282f;fill-opacity:1;fill-rule:nonzero;stroke:none"
         id="path50" />
      <path
         d="m 1446.9,2742.62 140.84,-81.31 v -46.9 l -140.84,81.31 c -11.95,6.9 -21.65,22.99 -21.65,35.95 0,12.95 9.7,17.85 21.65,10.95"
         style="fill:#26b6a6;fill-opacity:1;fill-rule:nonzero;stroke:none"
         id="path52" />
      <path
         d="m 1406.28,2578.46 484.78,-279.88 c 11.95,-6.91 21.65,-23.69 21.64,-37.5 v -184.53 c 0,-13.81 -9.7,-19.4 -21.65,-12.5 l -484.76,279.88 c -11.96,6.9 -21.65,23.69 -21.65,37.5 l -0.01,184.53 c 0,13.8 9.69,19.4 21.65,12.5"
         style="fill:#33535f;fill-opacity:1;fill-rule:nonzero;stroke:none"
         id="path54" />
      <path
         d="m 1425.25,2497.15 c 0,-12.96 9.7,-29.05 21.65,-35.96 l 403.53,-232.97 c 11.96,-6.91 21.65,-2 21.65,10.95 0,12.95 -9.69,29.05 -21.65,35.95 L 1446.9,2508.1 c -11.95,6.9 -21.65,2 -21.65,-10.95"
         style="fill:#26b6a6;fill-opacity:1;fill-rule:nonzero;stroke:none"
         id="path56" />
      <path
         d="m 1425.25,2403.33 c 0,-12.95 9.7,-29.04 21.65,-35.95 l 403.53,-232.97 c 11.96,-6.91 21.65,-2 21.65,10.95 0,12.95 -9.69,29.05 -21.65,35.95 l -403.53,232.98 c -11.95,6.9 -21.65,2 -21.65,-10.96"
         style="fill:#17282f;fill-opacity:1;fill-rule:nonzero;stroke:none"
         id="path58" />
      <path
         d="m 1446.9,2414.29 222.08,-128.22 v -46.9 l -222.08,128.21 c -11.95,6.91 -21.65,23 -21.65,35.95 0,12.96 9.7,17.86 21.65,10.96"
         style="fill:#26b6a6;fill-opacity:1;fill-rule:nonzero;stroke:none"
         id="path60" />
      <path
         d="m 1406.28,2250.13 484.78,-279.88 c 11.95,-6.91 21.65,-23.7 21.64,-37.5 v -184.53 c 0,-13.81 -9.7,-19.4 -21.65,-12.5 l -484.76,279.88 c -11.96,6.9 -21.65,23.69 -21.65,37.5 l -0.01,184.53 c 0,13.8 9.69,19.4 21.65,12.5"
         style="fill:#33535f;fill-opacity:1;fill-rule:nonzero;stroke:none"
         id="path62" />
      <path
         d="m 1425.25,2168.81 c 0,-12.95 9.7,-29.04 21.65,-35.95 l 403.53,-232.97 c 11.96,-6.91 21.65,-2 21.65,10.95 0,12.95 -9.69,29.05 -21.65,35.95 l -403.53,232.98 c -11.95,6.9 -21.65,2 -21.65,-10.96"
         style="fill:#26b6a6;fill-opacity:1;fill-rule:nonzero;stroke:none"
         id="path64" />
      <path
         d="m 1425.25,2075 c 0,-12.95 9.7,-29.04 21.65,-35.95 l 403.53,-232.97 c 11.96,-6.91 21.65,-2 21.65,10.95 0,12.95 -9.69,29.05 -21.65,35.95 l -403.53,232.98 c -11.95,6.9 -21.65,2 -21.65,-10.96"
         style="fill:#17282f;fill-opacity:1;fill-rule:nonzero;stroke:none"
         id="path66" />
      <path
         d="m 1446.9,2085.96 303.32,-175.12 v -46.9 l -303.32,175.11 c -11.95,6.91 -21.65,23 -21.65,35.95 0,12.96 9.7,17.86 21.65,10.96"
         style="fill:#26b6a6;fill-opacity:1;fill-rule:nonzero;stroke:none"
         id="path68" />
      <path
         d="m 2095.49,3259.25 c 22.44,13 40.62,1.16 40.62,-26.45 l 0.01,-1072.72 c 0,-27.61 -18.19,-60.54 -40.62,-73.54 -22.44,-13.01 -40.62,-1.17 -40.62,26.45 l -0.01,1072.71 c 0,27.61 18.19,60.54 40.62,73.55"
         style="fill:#263e47;fill-opacity:1;fill-rule:nonzero;stroke:none"
         id="path70" />
      <path
         d="m 2095.5,2110.28 c 11.21,6.48 20.31,22.92 20.31,36.72 l -0.01,1075.71 c 0,13.81 -9.09,19.75 -20.31,13.28 -11.22,-6.47 -20.31,-22.92 -20.31,-36.72 l 0.01,-1075.72 c 0,-13.8 9.09,-19.75 20.31,-13.27"
         style="fill:#17282f;fill-opacity:1;fill-rule:nonzero;stroke:none"
         id="path72" />
      <path
         d="m 2095.5,2110.28 c 11.21,6.48 20.31,22.92 20.31,36.72 l -0.01,514.31 -40.62,-23.45 0.01,-514.31 c 0,-13.8 9.09,-19.75 20.31,-13.27"
         style="fill:#26b6a6;fill-opacity:1;fill-rule:nonzero;stroke:none"
         id="path74" />
      <path
         d="m 2217.35,3329.6 c 22.44,13.01 40.63,1.16 40.63,-26.45 V 2230.44 c 0,-27.62 -18.19,-60.55 -40.62,-73.55 -22.43,-13.01 -40.62,-1.16 -40.62,26.45 l -0.01,1072.71 c 0,27.62 18.19,60.54 40.62,73.55"
         style="fill:#263e47;fill-opacity:1;fill-rule:nonzero;stroke:none"
         id="path76" />
      <path
         d="m 2217.36,2180.63 c 11.22,6.48 20.31,22.92 20.31,36.73 l -0.01,1075.71 c 0,13.81 -9.09,19.75 -20.31,13.27 -11.22,-6.47 -20.31,-22.91 -20.31,-36.72 l 0.01,-1075.71 c 0,-13.81 9.09,-19.75 20.31,-13.28"
         style="fill:#26b6a6;fill-opacity:1;fill-rule:nonzero;stroke:none"
         id="path78" />
      <path
         d="m 2339.22,3399.95 c 22.43,13.01 40.62,1.17 40.62,-26.45 V 2300.79 c 0,-27.61 -18.18,-60.54 -40.62,-73.55 -22.43,-13 -40.62,-1.16 -40.62,26.45 l -0.01,1072.72 c 0,27.61 18.19,60.54 40.63,73.54"
         style="fill:#263e47;fill-opacity:1;fill-rule:nonzero;stroke:none"
         id="path80" />
      <path
         d="m 2339.22,2250.99 c 11.22,6.47 20.31,22.92 20.31,36.72 v 1075.71 c 0,13.81 -9.1,19.75 -20.32,13.28 -11.21,-6.48 -20.31,-22.92 -20.31,-36.73 l 0.01,-1075.71 c 0,-13.81 9.1,-19.75 20.31,-13.27"
         style="fill:#17282f;fill-opacity:1;fill-rule:nonzero;stroke:none"
         id="path82" />
      <path
         d="m 2339.22,2250.99 c 11.22,6.47 20.31,22.92 20.31,36.72 v 830.92 l -40.63,-23.45 0.01,-830.92 c 0,-13.81 9.1,-19.75 20.31,-13.27"
         style="fill:#26b6a6;fill-opacity:1;fill-rule:nonzero;stroke:none"
         id="path84" />
      <path
         d="m 2461.08,3470.31 c 22.43,13 40.62,1.16 40.62,-26.45 l 0.01,-1072.71 c 0,-27.62 -18.19,-60.55 -40.62,-73.55 -22.44,-13.01 -40.62,-1.17 -40.63,26.45 v 1072.71 c 0,27.62 18.18,60.54 40.62,73.55"
         style="fill:#263e47;fill-opacity:1;fill-rule:nonzero;stroke:none"
         id="path86" />
      <path
         d="m 2461.09,2321.34 c 11.21,6.48 20.31,22.92 20.31,36.73 l -0.01,1075.7 c 0,13.81 -9.09,19.75 -20.31,13.28 -11.22,-6.48 -20.31,-22.92 -20.31,-36.73 V 2334.61 c 0,-13.8 9.1,-19.75 20.32,-13.27"
         style="fill:#17282f;fill-opacity:1;fill-rule:nonzero;stroke:none"
         id="path88" />
      <path
         d="m 2461.09,2321.34 c 11.21,6.48 20.31,22.92 20.3,36.73 v 181.55 l -40.62,-23.45 v -181.56 c 0,-13.8 9.1,-19.75 20.32,-13.27"
         style="fill:#26b6a6;fill-opacity:1;fill-rule:nonzero;stroke:none"
         id="path90" />
      <path
         d="m 2582.94,3540.66 c 22.44,13.01 40.62,1.16 40.62,-26.45 l 0.01,-1072.71 c 0,-27.61 -18.19,-60.54 -40.62,-73.55 -22.44,-13.01 -40.62,-1.16 -40.62,26.45 l -0.01,1072.71 c 0,27.62 18.19,60.55 40.62,73.55"
         style="fill:#263e47;fill-opacity:1;fill-rule:nonzero;stroke:none"
         id="path92" />
      <path
         d="m 2582.95,2391.69 c 11.22,6.48 20.31,22.92 20.31,36.73 l -0.01,1075.71 c 0,13.81 -9.09,19.75 -20.31,13.27 -11.22,-6.47 -20.31,-22.92 -20.31,-36.72 l 0.01,-1075.71 c 0,-13.81 9.09,-19.75 20.31,-13.28"
         style="fill:#17282f;fill-opacity:1;fill-rule:nonzero;stroke:none"
         id="path94" />
      <path
         d="m 2582.95,2391.69 c 11.22,6.48 20.31,22.92 20.31,36.73 l -0.01,561.22 -40.62,-23.45 0.01,-561.22 c 0,-13.81 9.09,-19.75 20.31,-13.28"
         style="fill:#26b6a6;fill-opacity:1;fill-rule:nonzero;stroke:none"
         id="path96" />
      <path
         d="m 2072.2,1956.02 534.05,308.33 c 9.56,5.52 17.32,1.05 17.32,-10 v -194.52 c 0,-11.05 -7.76,-24.48 -17.32,-30 L 2072.2,1721.49 c -9.57,-5.52 -17.32,-1.04 -17.32,10 v 194.53 c 0,11.04 7.75,24.47 17.32,30"
         style="fill:#263e47;fill-opacity:1;fill-rule:nonzero;stroke:none"
         id="path98" />
      <path
         d="m 2094.15,1898.34 c 0,-12.95 9.7,-17.86 21.66,-10.95 l 446.82,258.05 c 11.96,6.91 21.65,23 21.66,35.95 0,12.96 -9.69,17.86 -21.65,10.95 l -446.85,-258.05 c -11.95,-6.91 -21.64,-23 -21.64,-35.95"
         style="fill:#17282f;fill-opacity:1;fill-rule:nonzero;stroke:none"
         id="path100" />
      <path
         d="m 2094.15,1898.34 c 0,-12.95 9.7,-17.85 21.66,-10.95 l 324.95,187.71 0.01,46.9 -324.98,-187.71 c -11.95,-6.9 -21.64,-23 -21.64,-35.95"
         style="fill:#26b6a6;fill-opacity:1;fill-rule:nonzero;stroke:none"
         id="path102" />
      <path
         d="m 2094.15,1804.53 c 0,-12.95 9.7,-17.86 21.66,-10.95 l 446.82,258.05 c 11.96,6.91 21.65,23 21.66,35.95 0,12.95 -9.69,17.86 -21.65,10.95 l -446.85,-258.05 c -11.95,-6.91 -21.64,-23 -21.64,-35.95"
         style="fill:#17282f;fill-opacity:1;fill-rule:nonzero;stroke:none"
         id="path104" />
      <path
         d="m 2094.15,1804.53 c 0,-12.95 9.7,-17.86 21.66,-10.95 l 121.86,70.36 0.01,46.9 -121.89,-70.36 c -11.95,-6.91 -21.64,-23 -21.64,-35.95"
         style="fill:#26b6a6;fill-opacity:1;fill-rule:nonzero;stroke:none"
         id="path106" />
      <path
         d="m 2662.83,3776.06 -647.24,373.69 c -11.96,6.91 -31.35,6.91 -43.3,0 l -647.25,-373.68 c -11.96,-6.91 -11.96,-18.1 0,-25 l 647.26,-373.69 c 11.96,-6.91 31.34,-6.91 43.3,0 l 647.23,373.68 c 11.96,6.91 11.96,18.1 0,25"
         style="fill:#33535f;fill-opacity:1;fill-rule:nonzero;stroke:none"
         id="path108" />
      <path
         d="m 1980.95,3466.19 -502.09,289.88 c -7.17,4.14 -12.99,14.21 -12.99,22.5 v 16.9 c 0,8.28 5.82,18.36 12.99,22.5 l 502.09,289.88 c 7.17,4.14 18.8,4.14 25.98,0 l 502.08,-289.88 c 7.18,-4.15 12.99,-14.22 12.99,-22.5 v -16.91 c 0,-8.28 -5.81,-18.35 -12.99,-22.5 l -502.08,-289.87 c -7.17,-4.15 -18.81,-4.15 -25.98,0"
         style="fill:#17282f;fill-opacity:1;fill-rule:nonzero;stroke:none"
         id="path110" />
      <path
         d="m 1478.86,3802.97 502.09,-289.88 c 7.17,-4.14 18.81,-4.14 25.98,0 l 502.08,289.88 c 7.18,4.14 7.18,10.85 0,15 l -502.08,279.87 c -7.18,4.14 -18.81,4.14 -25.98,0 l -502.09,-279.87 c -7.17,-4.14 -7.17,-10.86 0,-15"
         style="fill:#33535f;fill-opacity:1;fill-rule:nonzero;stroke:none"
         id="path112" />
      <path
         d="m 1993.96,3510 v -46.9 c -4.7,0 -9.4,1 -13,3.1 l -502.1,289.9 c -7.2,4.1 -13,14.2 -13,22.5 v 16.9 c 0,7.3 4.5,16 10.6,20.8 -4.7,-4.1 -3.9,-9.7 2.4,-13.3 l 502.1,-289.9 c 3.6,-2.1 8.3,-3.1 13,-3.1"
         style="fill:#263e47;fill-opacity:1;fill-rule:nonzero;stroke:none"
         id="path114" />
      <path
         d="m 1980.95,3606.9 -339.61,196.07 c -7.17,4.14 -12.99,14.21 -12.99,22.5 v 16.91 c 0,8.28 5.82,18.35 12.99,22.5 l 217.74,125.7 c 7.18,4.14 17,12.89 21.93,19.55 L 1985,4150.21 c 4.94,6.65 14.76,8.68 21.94,4.54 l 339.6,-196.06 c 7.18,-4.14 12.99,-14.22 12.99,-22.5 l -0.01,-110.72 c 0,-8.29 -5.81,-18.36 -12.99,-22.5 l -339.6,-196.07 c -7.17,-4.14 -18.81,-4.14 -25.98,0"
         style="fill:#17282f;fill-opacity:1;fill-rule:nonzero;stroke:none"
         id="path116" />
      <path
         d="m 2006.93,3653.8 217.74,125.72 c 3.45,1.99 7.52,5.05 11.36,8.43 4.14,3.65 8.01,7.66 10.57,11.11 l 103.99,140.08 c 4.94,6.66 3.13,15.41 -4.05,19.55 l -339.6,196.06 c -7.18,4.14 -17,2.11 -21.94,-4.54 l -103.99,-140.08 c -4.93,-6.66 -12.95,-16.19 -20.13,-20.34 l -219.54,-124.91 c -7.17,-4.15 -7.17,-10.86 0,-15 l 339.61,-196.08 c 7.17,-4.14 18.8,-4.14 25.98,0"
         style="fill:#33535f;fill-opacity:1;fill-rule:nonzero;stroke:none"
         id="path118" />
      <path
         d="m 2346.54,3958.69 -339.6,196.06 c -7.18,4.14 -17,2.11 -21.94,-4.54 l -103.99,-140.08 c -2.57,-3.47 -6.47,-7.43 -10.62,-11.07 l 365.62,-211.08 c 4.14,3.65 8.03,7.63 10.59,11.08 l 103.99,140.08 c 4.94,6.66 3.13,15.41 -4.05,19.55"
         style="fill:#263e47;fill-opacity:1;fill-rule:nonzero;stroke:none"
         id="path120" />
      <path
         d="m 1723.74,3861.43 c 8.41,4.86 22.05,4.86 30.47,0 8.41,-4.86 8.41,-12.73 0,-17.59 -8.42,-4.85 -22.06,-4.85 -30.47,0 -8.41,4.86 -8.41,12.73 0,17.59"
         style="fill:#26b6a6;fill-opacity:1;fill-rule:nonzero;stroke:none"
         id="path122" />
      <path
         d="m 1784.67,3826.26 c 8.41,4.85 22.05,4.85 30.47,0 8.41,-4.86 8.41,-12.74 0,-17.59 -8.42,-4.86 -22.06,-4.86 -30.47,0 -8.41,4.85 -8.41,12.73 0,17.59"
         style="fill:#26b6a6;fill-opacity:1;fill-rule:nonzero;stroke:none"
         id="path124" />
      <path
         d="m 1845.6,3791.08 c 8.41,4.86 22.05,4.86 30.46,0 8.42,-4.86 8.42,-12.73 0,-17.59 -8.41,-4.86 -22.05,-4.86 -30.46,0 -8.41,4.86 -8.41,12.73 0,17.59"
         style="fill:#17282f;fill-opacity:1;fill-rule:nonzero;stroke:none"
         id="path126" />
      <path
         d="m 1906.53,3755.9 c 8.41,4.86 22.05,4.86 30.46,0 8.42,-4.85 8.42,-12.73 0,-17.59 -8.41,-4.85 -22.05,-4.85 -30.46,0 -8.42,4.86 -8.42,12.74 0,17.59"
         style="fill:#17282f;fill-opacity:1;fill-rule:nonzero;stroke:none"
         id="path128" />
      <path
         d="m 1769.44,3887.82 c 8.41,4.86 22.05,4.86 30.46,0 8.42,-4.86 8.42,-12.73 0,-17.59 -8.41,-4.86 -22.05,-4.86 -30.46,0 -8.42,4.86 -8.42,12.73 0,17.59"
         style="fill:#26b6a6;fill-opacity:1;fill-rule:nonzero;stroke:none"
         id="path130" />
      <path
         d="m 1830.37,3852.64 c 8.41,4.86 22.05,4.86 30.46,0 8.41,-4.86 8.41,-12.73 0,-17.59 -8.41,-4.85 -22.05,-4.85 -30.46,0 -8.42,4.86 -8.42,12.73 0,17.59"
         style="fill:#17282f;fill-opacity:1;fill-rule:nonzero;stroke:none"
         id="path132" />
      <path
         d="m 1891.29,3817.46 c 8.42,4.86 22.06,4.86 30.47,0 8.41,-4.85 8.41,-12.73 0,-17.58 -8.41,-4.86 -22.05,-4.86 -30.47,0 -8.41,4.85 -8.41,12.73 0,17.58"
         style="fill:#26b6a6;fill-opacity:1;fill-rule:nonzero;stroke:none"
         id="path134" />
      <path
         d="m 1952.22,3782.29 c 8.42,4.85 22.06,4.85 30.47,0 8.41,-4.86 8.41,-12.74 0,-17.59 -8.41,-4.86 -22.05,-4.86 -30.47,0 -8.41,4.85 -8.41,12.73 0,17.59"
         style="fill:#17282f;fill-opacity:1;fill-rule:nonzero;stroke:none"
         id="path136" />
      <path
         d="m 1815.13,3914.2 c 8.42,4.86 22.06,4.86 30.47,0 8.41,-4.86 8.41,-12.73 0,-17.59 -8.41,-4.86 -22.05,-4.86 -30.47,0 -8.41,4.86 -8.41,12.73 0,17.59"
         style="fill:#17282f;fill-opacity:1;fill-rule:nonzero;stroke:none"
         id="path138" />
      <path
         d="m 1876.06,3879.02 c 8.41,4.86 22.05,4.86 30.47,0 8.41,-4.85 8.41,-12.73 0,-17.59 -8.42,-4.85 -22.06,-4.85 -30.47,0 -8.41,4.86 -8.41,12.74 0,17.59"
         style="fill:#26b6a6;fill-opacity:1;fill-rule:nonzero;stroke:none"
         id="path140" />
      <path
         d="m 1936.99,3843.85 c 8.41,4.85 22.05,4.85 30.47,0 8.41,-4.86 8.41,-12.74 0,-17.59 -8.42,-4.86 -22.06,-4.86 -30.47,0 -8.41,4.85 -8.41,12.73 0,17.59"
         style="fill:#17282f;fill-opacity:1;fill-rule:nonzero;stroke:none"
         id="path142" />
      <path
         d="m 1967.8,3721.43 c 8.41,4.86 22.05,4.86 30.47,0 8.41,-4.86 8.41,-12.73 0,-17.59 -8.42,-4.86 -22.06,-4.86 -30.47,0 -8.41,4.86 -8.41,12.73 0,17.59"
         style="fill:#26b6a6;fill-opacity:1;fill-rule:nonzero;stroke:none"
         id="path144" />
      <path
         d="m 2013.5,3747.81 c 8.41,4.86 22.05,4.86 30.46,0 8.41,-4.86 8.41,-12.73 0,-17.59 -8.41,-4.86 -22.05,-4.86 -30.46,0 -8.42,4.86 -8.42,12.73 0,17.59"
         style="fill:#17282f;fill-opacity:1;fill-rule:nonzero;stroke:none"
         id="path146" />
      <path
         d="m 1997.92,3808.64 c 8.41,4.86 22.05,4.86 30.46,0 8.42,-4.85 8.42,-12.73 0,-17.59 -8.41,-4.85 -22.05,-4.85 -30.46,0 -8.41,4.86 -8.41,12.74 0,17.59"
         style="fill:#17282f;fill-opacity:1;fill-rule:nonzero;stroke:none"
         id="path148" />
      <path
         d="m 1860.83,3940.56 c 8.41,4.85 22.05,4.85 30.46,0 8.42,-4.86 8.42,-12.74 0,-17.59 -8.41,-4.86 -22.05,-4.86 -30.46,0 -8.41,4.85 -8.41,12.73 0,17.59"
         style="fill:#26b6a6;fill-opacity:1;fill-rule:nonzero;stroke:none"
         id="path150" />
      <path
         d="m 1921.76,3905.38 c 8.41,4.86 22.05,4.86 30.46,0 8.41,-4.86 8.41,-12.73 0,-17.59 -8.41,-4.86 -22.05,-4.86 -30.46,0 -8.42,4.86 -8.42,12.73 0,17.59"
         style="fill:#17282f;fill-opacity:1;fill-rule:nonzero;stroke:none"
         id="path152" />
      <path
         d="m 1982.68,3870.2 c 8.42,4.86 22.06,4.86 30.47,0 8.41,-4.85 8.41,-12.73 0,-17.59 -8.41,-4.85 -22.05,-4.85 -30.47,0 -8.41,4.86 -8.41,12.74 0,17.59"
         style="fill:#26b6a6;fill-opacity:1;fill-rule:nonzero;stroke:none"
         id="path154" />
      <path
         d="m 2043.61,3835.03 c 8.42,4.85 22.06,4.85 30.47,0 8.41,-4.86 8.41,-12.74 0,-17.59 -8.41,-4.86 -22.05,-4.86 -30.47,0 -8.41,4.85 -8.41,12.73 0,17.59"
         style="fill:#17282f;fill-opacity:1;fill-rule:nonzero;stroke:none"
         id="path156" />
      <path
         d="m 2059.19,3774.17 c 8.41,4.85 22.05,4.85 30.47,0 8.41,-4.86 8.41,-12.73 0,-17.59 -8.42,-4.86 -22.06,-4.86 -30.47,0 -8.41,4.86 -8.41,12.73 0,17.59"
         style="fill:#26b6a6;fill-opacity:1;fill-rule:nonzero;stroke:none"
         id="path158" />
      <path
         d="m 2104.89,3800.55 c 8.41,4.86 22.05,4.86 30.46,0 8.41,-4.85 8.41,-12.73 0,-17.59 -8.41,-4.85 -22.05,-4.85 -30.46,0 -8.42,4.86 -8.42,12.74 0,17.59"
         style="fill:#17282f;fill-opacity:1;fill-rule:nonzero;stroke:none"
         id="path160" />
      <path
         d="m 1994.66,3650.7 v -46.8 c -4.9,-0.1 -9.9,0.8 -13.7,3 l -339.6,196.1 c -7.2,4.1 -13,14.2 -13,22.5 v 16.9 c 0,7.3 4.5,16 10.6,20.8 -4.7,-4.1 -3.9,-9.7 2.4,-13.3 l 339.6,-196.1 c 3.8,-2.2 8.8,-3.2 13.7,-3.1"
         style="fill:#263e47;fill-opacity:1;fill-rule:nonzero;stroke:none"
         id="path162" />
      <path
         d="m 1925.93,4015.98 0.3,0.41 c 3.28,4.44 9.82,5.81 14.6,3.04 l 295.53,-170.63 c 4.79,-2.76 5.99,-8.59 2.69,-13.01 l -0.31,-0.42 c -3.3,-4.42 -9.85,-5.78 -14.64,-3.01 l -295.46,170.58 c -4.78,2.76 -5.99,8.6 -2.71,13.04"
         style="fill:#17282f;fill-opacity:1;fill-rule:nonzero;stroke:none"
         id="path164" />
      <path
         d="m 1925.93,4015.98 0.3,0.41 c 3.28,4.44 9.82,5.81 14.6,3.04 l 219.72,-126.85 -12.26,-16.45 -219.65,126.81 c -4.78,2.76 -5.99,8.6 -2.71,13.04"
         style="fill:#26b6a6;fill-opacity:1;fill-rule:nonzero;stroke:none"
         id="path166" />
      <path
         d="m 1950.36,4048.77 0.3,0.41 c 3.28,4.44 9.82,5.8 14.6,3.04 l 295.54,-170.63 c 4.78,-2.76 5.98,-8.59 2.68,-13.02 l -0.31,-0.41 c -3.3,-4.43 -9.85,-5.78 -14.64,-3.02 l -295.45,170.59 c -4.79,2.76 -6,8.61 -2.72,13.04"
         style="fill:#17282f;fill-opacity:1;fill-rule:nonzero;stroke:none"
         id="path168" />
      <path
         d="m 1950.36,4048.77 0.3,0.41 c 3.28,4.44 9.82,5.8 14.6,3.05 l 73.46,-42.4 -12.26,-16.45 -73.38,42.35 c -4.79,2.77 -6,8.61 -2.72,13.04"
         style="fill:#26b6a6;fill-opacity:1;fill-rule:nonzero;stroke:none"
         id="path170" />
      <path
         d="m 1974.79,4081.57 0.3,0.4 c 3.28,4.44 9.82,5.8 14.6,3.05 l 295.54,-170.64 c 4.78,-2.76 5.98,-8.59 2.68,-13.02 l -0.31,-0.41 c -3.3,-4.43 -9.85,-5.78 -14.63,-3.02 l -295.46,170.59 c -4.79,2.77 -6,8.61 -2.72,13.05"
         style="fill:#17282f;fill-opacity:1;fill-rule:nonzero;stroke:none"
         id="path172" />
      <path
         d="m 1974.79,4081.57 0.3,0.4 c 3.28,4.44 9.82,5.81 14.61,3.06 l 153.93,-88.6 -12.26,-16.45 -153.86,88.56 c -4.78,2.75 -6,8.59 -2.72,13.03"
         style="fill:#26b6a6;fill-opacity:1;fill-rule:nonzero;stroke:none"
         id="path174" />
      <path
         d="m 1999.22,4114.36 0.3,0.4 c 3.28,4.44 9.82,5.81 14.61,3.04 l 295.53,-170.63 c 4.78,-2.76 5.98,-8.59 2.68,-13.01 l -0.31,-0.42 c -3.3,-4.43 -9.85,-5.78 -14.63,-3.01 l -295.46,170.58 c -4.78,2.76 -6,8.6 -2.72,13.05"
         style="fill:#17282f;fill-opacity:1;fill-rule:nonzero;stroke:none"
         id="path176" />
      <path
         d="m 1999.22,4114.36 0.3,0.4 c 3.28,4.44 9.82,5.81 14.61,3.04 l 268.26,-154.87 -12.26,-16.45 -268.19,154.83 c -4.78,2.76 -6,8.6 -2.72,13.05"
         style="fill:#26b6a6;fill-opacity:1;fill-rule:nonzero;stroke:none"
         id="path178" />
      <path
         d="m 1468.37,1367.22 100.22,57.85 c 4.94,2.88 12.1,4.51 19.27,4.49 7.07,0.02 14.12,-1.63 19.03,-4.49 l 595.24,-343.66 c 4.3,-2.49 8.96,-3.65 13.48,-3.65 7.09,0.01 13.81,2.82 18.8,7.6 5,4.77 8.27,11.64 8.26,19.46 v 492.32 h -10 v -492.32 c -0.01,-5.04 -2.02,-9.19 -5.18,-12.24 -3.16,-3.04 -7.47,-4.83 -11.88,-4.82 -2.82,0 -5.69,0.71 -8.49,2.31 l -595.23,343.66 c -6.94,3.99 -15.48,5.81 -24.03,5.83 -8.6,-0.02 -17.24,-1.8 -24.27,-5.83 l -100.22,-57.85 5,-8.66"
         style="fill:#26b6a6;fill-opacity:1;fill-rule:nonzero;stroke:none"
         id="path180" />
      <path
         d="m 1427.75,1390.67 140.84,81.31 c 4.92,2.87 12.03,4.5 19.15,4.48 7.12,0.02 14.23,-1.61 19.15,-4.48 l 635.85,-367.11 c 4.31,-2.49 8.97,-3.66 13.49,-3.66 7.09,0.01 13.81,2.82 18.8,7.6 5,4.77 8.27,11.65 8.26,19.46 v 468.87 h -10 v -468.87 c -0.01,-5.04 -2.02,-9.19 -5.18,-12.24 -3.16,-3.03 -7.47,-4.82 -11.88,-4.82 -2.82,0.01 -5.69,0.71 -8.48,2.32 l -635.86,367.11 c -6.99,4 -15.58,5.81 -24.15,5.82 -8.58,-0.01 -17.17,-1.81 -24.15,-5.82 l -140.84,-81.31 5,-8.66"
         style="fill:#26b6a6;fill-opacity:1;fill-rule:nonzero;stroke:none"
         id="path182" />
      <path
         d="m 1387.14,1414.2 181.44,104.69 c 4.93,2.87 12.05,4.5 19.19,4.48 7.11,0.02 14.2,-1.62 19.12,-4.49 l 676.48,-390.56 c 4.3,-2.49 8.96,-3.66 13.48,-3.66 7.09,0.01 13.81,2.82 18.8,7.6 5,4.77 8.27,11.65 8.26,19.46 v 442.62 h -10 v -442.62 c -0.01,-5.04 -2.02,-9.19 -5.18,-12.24 -3.16,-3.03 -7.47,-4.82 -11.88,-4.82 -2.82,0.01 -5.69,0.71 -8.48,2.32 l -676.48,390.56 c -6.98,4 -15.55,5.81 -24.12,5.83 -8.59,-0.02 -17.19,-1.81 -24.19,-5.82 l -181.44,-104.69 5,-8.66"
         style="fill:#26b6a6;fill-opacity:1;fill-rule:nonzero;stroke:none"
         id="path184" />
      <path
         d="m 1346.37,1437.57 222.21,128.22 c 4.93,2.87 12.03,4.5 19.16,4.49 7.12,0.01 14.23,-1.62 19.15,-4.49 l 717.1,-414.02 c 4.3,-2.49 8.96,-3.66 13.48,-3.65 7.09,0 13.81,2.81 18.8,7.6 5,4.76 8.27,11.64 8.26,19.46 v 419.16 h -10 v -419.16 c -0.01,-5.04 -2.02,-9.2 -5.18,-12.25 -3.16,-3.03 -7.47,-4.82 -11.88,-4.81 -2.82,0 -5.69,0.7 -8.48,2.31 l -717.1,414.02 c -6.99,4 -15.58,5.81 -24.15,5.82 -8.58,-0.01 -17.17,-1.81 -24.16,-5.82 l -222.2,-128.22 4.99,-8.66"
         style="fill:#26b6a6;fill-opacity:1;fill-rule:nonzero;stroke:none"
         id="path186" />
      <path
         d="M 794.297,3469.75 147.043,3096.06 c -11.957,-6.9 -21.648,-23.69 -21.648,-37.5 V 1279.29 c 0,-13.81 9.691,-30.6 21.648,-37.5 L 794.305,868.102 c 11.957,-6.903 31.343,-6.903 43.3,0 l 647.235,373.688 c 11.95,6.9 21.65,23.69 21.65,37.5 v 1779.27 c 0,13.81 -9.7,30.6 -21.65,37.5 l -647.242,373.69 c -11.957,6.9 -31.344,6.9 -43.301,0"
         style="fill:#263e47;fill-opacity:1;fill-rule:nonzero;stroke:none"
         id="path188" />
      <path
         d="M 1506.46,3058.6 V 1279.3 c 0,-13.8 -9.7,-30.6 -21.6,-37.5 L 837.563,868.102 c -5.899,-3.5 -13.797,-5.204 -21.598,-5.204 V 2692.2 c 7.801,0 15.598,1.8 21.598,5.2 l 647.297,373.7 5.9,4.9 7.7,6.4 c 4.9,-7.4 8,-16 8,-23.8"
         style="fill:#17282f;fill-opacity:1;fill-rule:nonzero;stroke:none"
         id="path190" />
      <path
         d="m 228.285,2883.45 484.774,-279.88 c 11.957,-6.91 21.652,-23.7 21.648,-37.5 l -0.008,-184.53 c 0,-13.81 -9.691,-19.4 -21.648,-12.5 l -484.762,279.88 c -11.953,6.9 -21.648,23.69 -21.648,37.5 l -0.008,184.53 c 0,13.8 9.691,19.4 21.652,12.5"
         style="fill:#33535f;fill-opacity:1;fill-rule:nonzero;stroke:none"
         id="path192" />
      <path
         d="m 247.258,2802.13 c 0,-12.95 9.691,-29.04 21.648,-35.95 l 403.528,-232.97 c 11.957,-6.91 21.648,-2 21.648,10.95 0,12.95 -9.691,29.05 -21.648,35.95 l -403.528,232.98 c -11.957,6.9 -21.648,2 -21.648,-10.96"
         style="fill:#26b6a6;fill-opacity:1;fill-rule:nonzero;stroke:none"
         id="path194" />
      <path
         d="m 247.258,2708.32 c 0,-12.95 9.691,-29.04 21.648,-35.95 L 672.434,2439.4 c 11.957,-6.91 21.648,-2 21.648,10.95 0,12.95 -9.691,29.05 -21.648,35.95 l -403.528,232.98 c -11.957,6.9 -21.648,2 -21.648,-10.96"
         style="fill:#17282f;fill-opacity:1;fill-rule:nonzero;stroke:none"
         id="path196" />
      <path
         d="m 268.906,2719.28 222.074,-128.22 0.004,-46.9 -222.078,128.21 c -11.957,6.91 -21.648,23 -21.648,35.95 0,12.96 9.691,17.86 21.648,10.96"
         style="fill:#26b6a6;fill-opacity:1;fill-rule:nonzero;stroke:none"
         id="path198" />
      <path
         d="m 228.285,2555.12 484.774,-279.88 c 11.957,-6.91 21.652,-23.7 21.648,-37.5 l -0.008,-184.53 c 0,-13.81 -9.691,-19.4 -21.648,-12.5 l -484.762,279.88 c -11.953,6.9 -21.648,23.69 -21.648,37.5 l -0.008,184.53 c 0,13.8 9.691,19.4 21.652,12.5"
         style="fill:#33535f;fill-opacity:1;fill-rule:nonzero;stroke:none"
         id="path200" />
      <path
         d="m 247.258,2473.8 c 0,-12.95 9.691,-29.04 21.648,-35.95 l 403.528,-232.97 c 11.957,-6.91 21.648,-2 21.648,10.95 0,12.95 -9.691,29.05 -21.648,35.95 l -403.528,232.98 c -11.957,6.9 -21.648,2 -21.648,-10.96"
         style="fill:#26b6a6;fill-opacity:1;fill-rule:nonzero;stroke:none"
         id="path202" />
      <path
         d="m 247.258,2379.99 c 0,-12.95 9.691,-29.05 21.648,-35.95 l 403.528,-232.97 c 11.957,-6.91 21.648,-2 21.648,10.95 0,12.95 -9.691,29.05 -21.648,35.95 l -403.528,232.97 c -11.957,6.91 -21.648,2.01 -21.648,-10.95"
         style="fill:#17282f;fill-opacity:1;fill-rule:nonzero;stroke:none"
         id="path204" />
      <path
         d="m 268.906,2390.94 343.938,-198.57 0.004,-46.9 -343.942,198.57 c -11.957,6.9 -21.648,23 -21.648,35.95 0,12.96 9.691,17.86 21.648,10.95"
         style="fill:#26b6a6;fill-opacity:1;fill-rule:nonzero;stroke:none"
         id="path206" />
      <path
         d="m 228.285,2226.78 484.774,-279.87 c 11.957,-6.91 21.652,-23.7 21.648,-37.5 l -0.008,-184.53 c 0,-13.81 -9.691,-19.41 -21.648,-12.5 l -484.762,279.88 c -11.953,6.9 -21.648,23.69 -21.648,37.5 l -0.008,184.52 c 0,13.81 9.691,19.41 21.652,12.5"
         style="fill:#33535f;fill-opacity:1;fill-rule:nonzero;stroke:none"
         id="path208" />
      <path
         d="m 247.258,2145.47 c 0,-12.95 9.691,-29.05 21.648,-35.95 l 403.528,-232.97 c 11.957,-6.91 21.648,-2 21.648,10.95 0,12.95 -9.691,29.05 -21.648,35.95 l -403.528,232.97 c -11.957,6.91 -21.648,2 -21.648,-10.95"
         style="fill:#26b6a6;fill-opacity:1;fill-rule:nonzero;stroke:none"
         id="path210" />
      <path
         d="m 247.258,2051.66 c 0,-12.95 9.691,-29.05 21.648,-35.95 l 403.528,-232.98 c 11.957,-6.9 21.648,-2 21.648,10.96 0,12.95 -9.691,29.05 -21.648,35.95 l -403.528,232.97 c -11.957,6.91 -21.648,2 -21.648,-10.95"
         style="fill:#17282f;fill-opacity:1;fill-rule:nonzero;stroke:none"
         id="path212" />
      <path
         d="m 268.906,2062.61 140.832,-81.3 0.004,-46.9 -140.836,81.3 c -11.957,6.9 -21.648,23 -21.648,35.95 0,12.95 9.691,17.86 21.648,10.95"
         style="fill:#26b6a6;fill-opacity:1;fill-rule:nonzero;stroke:none"
         id="path214" />
      <path
         d="m 228.285,1898.45 484.774,-279.88 c 11.957,-6.9 21.652,-23.69 21.648,-37.5 l -0.008,-184.52 c 0,-13.81 -9.691,-19.41 -21.648,-12.5 l -484.762,279.88 c -11.953,6.9 -21.648,23.69 -21.648,37.5 l -0.008,184.52 c 0,13.81 9.691,19.41 21.652,12.5"
         style="fill:#33535f;fill-opacity:1;fill-rule:nonzero;stroke:none"
         id="path216" />
      <path
         d="m 247.258,1817.14 c 0,-12.95 9.691,-29.05 21.648,-35.95 l 403.528,-232.97 c 11.957,-6.91 21.648,-2.01 21.648,10.95 0,12.95 -9.691,29.05 -21.648,35.95 l -403.528,232.97 c -11.957,6.91 -21.648,2 -21.648,-10.95"
         style="fill:#26b6a6;fill-opacity:1;fill-rule:nonzero;stroke:none"
         id="path218" />
      <path
         d="m 247.258,1723.33 c 0,-12.95 9.691,-29.05 21.648,-35.95 L 672.434,1454.4 c 11.957,-6.9 21.648,-2 21.648,10.96 0,12.95 -9.691,29.04 -21.648,35.95 l -403.528,232.97 c -11.957,6.91 -21.648,2 -21.648,-10.95"
         style="fill:#17282f;fill-opacity:1;fill-rule:nonzero;stroke:none"
         id="path220" />
      <path
         d="m 268.906,1734.28 222.074,-128.21 0.004,-46.9 -222.078,128.21 c -11.957,6.9 -21.648,23 -21.648,35.95 0,12.95 9.691,17.86 21.648,10.95"
         style="fill:#26b6a6;fill-opacity:1;fill-rule:nonzero;stroke:none"
         id="path222" />
      <path
         d="m 228.285,1570.12 484.774,-279.88 c 11.957,-6.9 21.652,-23.69 21.648,-37.5 l -0.008,-184.52 c 0,-13.81 -9.691,-19.41 -21.648,-12.5 L 228.289,1335.6 c -11.953,6.9 -21.648,23.69 -21.648,37.5 l -0.008,184.52 c 0,13.81 9.691,19.41 21.652,12.5"
         style="fill:#33535f;fill-opacity:1;fill-rule:nonzero;stroke:none"
         id="path224" />
      <path
         d="m 247.258,1488.81 c 0,-12.95 9.691,-29.05 21.648,-35.95 l 403.528,-232.98 c 11.957,-6.9 21.648,-2 21.648,10.96 0,12.95 -9.691,29.04 -21.648,35.95 l -403.528,232.97 c -11.957,6.91 -21.648,2 -21.648,-10.95"
         style="fill:#26b6a6;fill-opacity:1;fill-rule:nonzero;stroke:none"
         id="path226" />
      <path
         d="m 247.258,1395 c 0,-12.95 9.691,-29.05 21.648,-35.95 l 403.528,-232.98 c 11.957,-6.9 21.648,-2 21.648,10.96 0,12.95 -9.691,29.04 -21.648,35.95 l -403.528,232.97 c -11.957,6.91 -21.648,2 -21.648,-10.95"
         style="fill:#17282f;fill-opacity:1;fill-rule:nonzero;stroke:none"
         id="path228" />
      <path
         d="m 268.906,1405.95 303.321,-175.12 v -46.89 l -303.321,175.11 c -11.957,6.9 -21.648,23 -21.648,35.95 0,12.95 9.691,17.86 21.648,10.95"
         style="fill:#26b6a6;fill-opacity:1;fill-rule:nonzero;stroke:none"
         id="path230" />
      <path
         d="m 917.492,2579.24 c 22.438,13.01 40.625,1.16 40.625,-26.45 l 0.004,-1072.71 c 0,-27.61 -18.187,-60.54 -40.621,-73.55 -22.434,-13 -40.621,-1.16 -40.621,26.45 l -0.008,1072.72 c 0,27.61 18.188,60.54 40.621,73.54"
         style="fill:#263e47;fill-opacity:1;fill-rule:nonzero;stroke:none"
         id="path232" />
      <path
         d="m 917.5,1430.27 c 11.215,6.48 20.309,22.92 20.309,36.73 l -0.004,1075.71 c 0,13.81 -9.094,19.75 -20.313,13.28 -11.219,-6.48 -20.312,-22.92 -20.312,-36.73 l 0.008,-1075.71 c 0,-13.81 9.093,-19.75 20.312,-13.28"
         style="fill:#17282f;fill-opacity:1;fill-rule:nonzero;stroke:none"
         id="path234" />
      <path
         d="m 917.5,1430.27 c 11.215,6.48 20.309,22.92 20.309,36.73 l -0.004,514.31 -40.625,-23.45 0.008,-514.31 c 0,-13.81 9.093,-19.75 20.312,-13.28"
         style="fill:#26b6a6;fill-opacity:1;fill-rule:nonzero;stroke:none"
         id="path236" />
      <path
         d="m 1039.36,2649.6 c 22.43,13 40.62,1.16 40.62,-26.46 v -1072.7 c 0,-27.62 -18.18,-60.55 -40.62,-73.55 -22.43,-13.01 -40.618,-1.17 -40.618,26.45 l -0.008,1072.71 c 0,27.61 18.186,60.54 40.626,73.55"
         style="fill:#263e47;fill-opacity:1;fill-rule:nonzero;stroke:none"
         id="path238" />
      <path
         d="m 1039.36,1500.63 c 11.22,6.48 20.31,22.92 20.31,36.73 v 1075.7 c 0,13.81 -9.1,19.76 -20.32,13.28 -11.21,-6.48 -20.31,-22.92 -20.31,-36.73 l 0.01,-1075.71 c 0,-13.81 9.09,-19.75 20.31,-13.27"
         style="fill:#26b6a6;fill-opacity:1;fill-rule:nonzero;stroke:none"
         id="path240" />
      <path
         d="m 1161.22,2719.95 c 22.43,13 40.62,1.16 40.62,-26.45 l 0.01,-1072.71 c 0,-27.62 -18.19,-60.54 -40.62,-73.55 -22.44,-13.01 -40.63,-1.16 -40.63,26.45 V 2646.4 c 0,27.62 18.18,60.55 40.62,73.55"
         style="fill:#263e47;fill-opacity:1;fill-rule:nonzero;stroke:none"
         id="path242" />
      <path
         d="m 1161.22,1570.98 c 11.22,6.48 20.32,22.92 20.31,36.73 v 1075.71 c 0,13.81 -9.09,19.75 -20.31,13.27 -11.22,-6.47 -20.31,-22.92 -20.31,-36.72 V 1584.26 c 0,-13.81 9.1,-19.75 20.31,-13.28"
         style="fill:#17282f;fill-opacity:1;fill-rule:nonzero;stroke:none"
         id="path244" />
      <path
         d="m 1161.22,1570.98 c 11.22,6.48 20.32,22.92 20.31,36.73 v 830.92 l -40.62,-23.45 v -830.92 c 0,-13.81 9.1,-19.75 20.31,-13.28"
         style="fill:#26b6a6;fill-opacity:1;fill-rule:nonzero;stroke:none"
         id="path246" />
      <path
         d="m 1283.08,2790.3 c 22.44,13.01 40.62,1.17 40.62,-26.45 l 0.01,-1072.71 c 0,-27.61 -18.19,-60.54 -40.62,-73.55 -22.44,-13 -40.62,-1.16 -40.62,26.45 l -0.01,1072.72 c 0,27.61 18.19,60.54 40.62,73.54"
         style="fill:#263e47;fill-opacity:1;fill-rule:nonzero;stroke:none"
         id="path248" />
      <path
         d="m 1283.09,1641.34 c 11.21,6.47 20.31,22.92 20.31,36.72 l -0.01,1075.71 c 0,13.81 -9.09,19.75 -20.31,13.28 -11.22,-6.48 -20.31,-22.92 -20.31,-36.73 l 0.01,-1075.71 c 0,-13.81 9.09,-19.75 20.31,-13.27"
         style="fill:#17282f;fill-opacity:1;fill-rule:nonzero;stroke:none"
         id="path250" />
      <path
         d="m 1283.09,1641.34 c 11.21,6.47 20.31,22.92 20.31,36.72 l -0.01,181.56 -40.62,-23.45 0.01,-181.56 c 0,-13.81 9.09,-19.75 20.31,-13.27"
         style="fill:#26b6a6;fill-opacity:1;fill-rule:nonzero;stroke:none"
         id="path252" />
      <path
         d="m 1404.94,2860.66 c 22.44,13 40.63,1.16 40.63,-26.46 V 1761.5 c 0,-27.62 -18.18,-60.55 -40.62,-73.55 -22.43,-13.01 -40.62,-1.17 -40.62,26.45 l -0.01,1072.71 c 0,27.61 18.19,60.54 40.62,73.55"
         style="fill:#263e47;fill-opacity:1;fill-rule:nonzero;stroke:none"
         id="path254" />
      <path
         d="m 1404.95,1711.69 c 11.22,6.47 20.31,22.92 20.31,36.73 v 1075.71 c 0,13.8 -9.1,19.74 -20.32,13.27 -11.21,-6.48 -20.31,-22.92 -20.31,-36.73 l 0.01,-1075.71 c 0,-13.8 9.09,-19.75 20.31,-13.27"
         style="fill:#17282f;fill-opacity:1;fill-rule:nonzero;stroke:none"
         id="path256" />
      <path
         d="m 1404.95,1711.69 c 11.22,6.47 20.31,22.92 20.31,36.73 l -0.01,561.22 -40.62,-23.45 0.01,-561.23 c 0,-13.8 9.09,-19.75 20.31,-13.27"
         style="fill:#26b6a6;fill-opacity:1;fill-rule:nonzero;stroke:none"
         id="path258" />
      <path
         d="m 894.199,1276.01 534.051,308.34 c 9.57,5.52 17.32,1.04 17.32,-10 v -194.53 c 0,-11.04 -7.75,-24.47 -17.32,-30 L 894.199,1041.49 c -9.562,-5.52 -17.316,-1.05 -17.316,10 v 194.52 c 0,11.05 7.754,24.48 17.316,30"
         style="fill:#263e47;fill-opacity:1;fill-rule:nonzero;stroke:none"
         id="path260" />
      <path
         d="m 916.152,1218.33 c 0.004,-12.95 9.7,-17.85 21.661,-10.95 l 446.817,258.06 c 11.96,6.9 21.66,23 21.66,35.95 0,12.95 -9.69,17.85 -21.65,10.95 L 937.797,1254.28 c -11.957,-6.9 -21.649,-22.99 -21.645,-35.95"
         style="fill:#17282f;fill-opacity:1;fill-rule:nonzero;stroke:none"
         id="path262" />
      <path
         d="m 916.152,1218.33 c 0.004,-12.95 9.7,-17.85 21.657,-10.94 l 324.951,187.71 0.01,46.9 -324.973,-187.71 c -11.957,-6.91 -21.649,-23 -21.645,-35.96"
         style="fill:#26b6a6;fill-opacity:1;fill-rule:nonzero;stroke:none"
         id="path264" />
      <path
         d="m 916.152,1124.52 c 0.004,-12.95 9.7,-17.85 21.661,-10.95 l 446.817,258.06 c 11.96,6.9 21.66,23 21.66,35.95 0,12.95 -9.69,17.85 -21.65,10.95 L 937.797,1160.47 c -11.957,-6.9 -21.649,-23 -21.645,-35.95"
         style="fill:#17282f;fill-opacity:1;fill-rule:nonzero;stroke:none"
         id="path266" />
      <path
         d="m 916.152,1124.52 c 0.004,-12.95 9.7,-17.85 21.661,-10.95 l 121.857,70.36 0.01,46.9 -121.883,-70.36 c -11.957,-6.9 -21.649,-23 -21.645,-35.95"
         style="fill:#26b6a6;fill-opacity:1;fill-rule:nonzero;stroke:none"
         id="path268" />
      <path
         d="m 1484.84,3096.06 -647.25,373.69 c -11.957,6.9 -31.344,6.9 -43.301,0 L 147.043,3096.06 c -11.957,-6.9 -11.957,-18.09 0,-25 l 647.262,-373.69 c 11.957,-6.9 31.343,-6.9 43.3,0 l 647.235,373.69 c 11.95,6.9 11.95,18.1 0,25"
         style="fill:#33535f;fill-opacity:1;fill-rule:nonzero;stroke:none"
         id="path270" />
      <path
         d="m 802.953,2786.18 -502.086,289.88 c -7.176,4.14 -12.992,14.22 -12.992,22.5 v 16.91 c 0,8.28 5.816,18.35 12.988,22.5 l 502.086,289.87 c 7.172,4.15 18.805,4.15 25.981,0 l 502.09,-289.88 c 7.17,-4.14 12.99,-14.21 12.99,-22.5 v -16.9 c 0,-8.28 -5.82,-18.36 -12.99,-22.5 L 828.934,2786.18 c -7.176,-4.14 -18.809,-4.14 -25.981,0"
         style="fill:#17282f;fill-opacity:1;fill-rule:nonzero;stroke:none"
         id="path272" />
      <path
         d="m 300.863,3122.97 502.09,-289.88 c 7.172,-4.15 18.805,-4.15 25.981,0 l 502.086,289.87 c 7.17,4.15 7.17,10.86 0,15 l -502.09,279.88 c -7.176,4.14 -18.809,4.14 -25.981,0 L 300.863,3137.97 c -7.172,-4.15 -7.172,-10.86 0,-15"
         style="fill:#33535f;fill-opacity:1;fill-rule:nonzero;stroke:none"
         id="path274" />
      <path
         d="m 815.965,2830 v -46.9 c -4.699,0 -9.402,1 -13,3.1 l -502.102,289.9 c -7.199,4.1 -13,14.2 -13,22.5 v 16.9 c 0,7.3 4.5,16 10.602,20.8 -4.699,-4.1 -3.902,-9.7 2.398,-13.3 l 502.102,-289.9 c 3.598,-2.1 8.301,-3.1 13,-3.1"
         style="fill:#263e47;fill-opacity:1;fill-rule:nonzero;stroke:none"
         id="path276" />
      <path
         d="m 802.953,2926.9 -339.605,196.07 c -7.176,4.14 -12.993,14.21 -12.993,22.5 v 16.9 c 0,8.28 5.817,18.36 12.993,22.5 l 217.738,125.71 c 7.172,4.14 16.992,12.89 21.93,19.54 l 103.992,140.09 c 4.937,6.65 14.758,8.68 21.93,4.54 l 339.602,-196.07 c 7.18,-4.14 12.99,-14.21 12.99,-22.5 v -110.72 c 0,-8.28 -5.82,-18.35 -13,-22.5 L 828.934,2926.9 c -7.176,-4.15 -18.809,-4.15 -25.981,0"
         style="fill:#17282f;fill-opacity:1;fill-rule:nonzero;stroke:none"
         id="path278" />
      <path
         d="m 828.934,2973.8 217.736,125.71 c 3.46,2 7.52,5.06 11.36,8.44 4.14,3.64 8.01,7.66 10.57,11.11 l 103.99,140.08 c 4.94,6.65 3.13,15.4 -4.05,19.54 l -339.602,196.07 c -7.172,4.14 -16.993,2.11 -21.93,-4.54 L 703.016,3330.12 c -4.938,-6.65 -12.957,-16.19 -20.129,-20.33 L 463.348,3184.87 c -7.176,-4.14 -7.176,-10.86 0,-15 L 802.949,2973.8 c 7.176,-4.14 18.809,-4.14 25.985,0"
         style="fill:#33535f;fill-opacity:1;fill-rule:nonzero;stroke:none"
         id="path280" />
      <path
         d="m 1168.54,3278.68 -339.599,196.07 c -7.175,4.14 -16.996,2.11 -21.933,-4.54 L 703.016,3330.12 c -2.571,-3.46 -6.473,-7.42 -10.625,-11.06 l 365.619,-211.08 c 4.14,3.65 8.03,7.62 10.59,11.08 l 103.99,140.08 c 4.94,6.65 3.13,15.4 -4.05,19.54"
         style="fill:#263e47;fill-opacity:1;fill-rule:nonzero;stroke:none"
         id="path282" />
      <path
         d="m 545.746,3181.43 c 8.41,4.86 22.051,4.86 30.465,0 8.41,-4.86 8.41,-12.73 0,-17.59 -8.414,-4.86 -22.055,-4.86 -30.465,0 -8.414,4.86 -8.414,12.73 0,17.59"
         style="fill:#26b6a6;fill-opacity:1;fill-rule:nonzero;stroke:none"
         id="path284" />
      <path
         d="m 606.676,3146.25 c 8.41,4.86 22.051,4.86 30.465,0 8.41,-4.85 8.41,-12.73 0,-17.59 -8.414,-4.85 -22.055,-4.85 -30.465,0 -8.414,4.86 -8.414,12.74 0,17.59"
         style="fill:#26b6a6;fill-opacity:1;fill-rule:nonzero;stroke:none"
         id="path286" />
      <path
         d="m 667.602,3111.08 c 8.414,4.85 22.054,4.85 30.464,0 8.414,-4.86 8.414,-12.74 0,-17.59 -8.41,-4.86 -22.05,-4.86 -30.464,0 -8.414,4.85 -8.414,12.73 0,17.59"
         style="fill:#17282f;fill-opacity:1;fill-rule:nonzero;stroke:none"
         id="path288" />
      <path
         d="m 728.531,3075.9 c 8.41,4.86 22.051,4.86 30.465,0 8.414,-4.86 8.414,-12.73 0,-17.59 -8.414,-4.86 -22.055,-4.86 -30.465,0 -8.414,4.86 -8.414,12.73 0,17.59"
         style="fill:#17282f;fill-opacity:1;fill-rule:nonzero;stroke:none"
         id="path290" />
      <path
         d="m 591.441,3207.81 c 8.411,4.86 22.051,4.86 30.465,0 8.414,-4.85 8.414,-12.73 0,-17.59 -8.414,-4.85 -22.054,-4.85 -30.465,0 -8.414,4.86 -8.414,12.74 0,17.59"
         style="fill:#26b6a6;fill-opacity:1;fill-rule:nonzero;stroke:none"
         id="path292" />
      <path
         d="m 652.367,3172.64 c 8.414,4.85 22.055,4.85 30.469,0 8.41,-4.86 8.41,-12.74 0,-17.59 -8.414,-4.86 -22.055,-4.86 -30.469,0 -8.41,4.85 -8.41,12.73 0,17.59"
         style="fill:#17282f;fill-opacity:1;fill-rule:nonzero;stroke:none"
         id="path294" />
      <path
         d="m 713.297,3137.46 c 8.414,4.86 22.055,4.86 30.465,0 8.414,-4.86 8.414,-12.73 0,-17.59 -8.41,-4.86 -22.051,-4.86 -30.465,0 -8.41,4.86 -8.41,12.73 0,17.59"
         style="fill:#26b6a6;fill-opacity:1;fill-rule:nonzero;stroke:none"
         id="path296" />
      <path
         d="m 774.227,3102.28 c 8.414,4.86 22.05,4.86 30.464,0 8.414,-4.86 8.414,-12.73 0,-17.59 -8.414,-4.85 -22.05,-4.85 -30.464,0 -8.414,4.86 -8.414,12.73 0,17.59"
         style="fill:#17282f;fill-opacity:1;fill-rule:nonzero;stroke:none"
         id="path298" />
      <path
         d="m 637.137,3234.2 c 8.41,4.85 22.051,4.85 30.465,0 8.414,-4.86 8.414,-12.74 0,-17.59 -8.414,-4.86 -22.055,-4.86 -30.465,0 -8.414,4.85 -8.414,12.73 0,17.59"
         style="fill:#17282f;fill-opacity:1;fill-rule:nonzero;stroke:none"
         id="path300" />
      <path
         d="m 698.063,3199.02 c 8.414,4.86 22.054,4.86 30.468,0 8.41,-4.86 8.41,-12.73 0,-17.59 -8.414,-4.86 -22.054,-4.86 -30.468,0 -8.411,4.86 -8.411,12.73 0,17.59"
         style="fill:#26b6a6;fill-opacity:1;fill-rule:nonzero;stroke:none"
         id="path302" />
      <path
         d="m 758.992,3163.84 c 8.414,4.86 22.055,4.86 30.465,0 8.414,-4.86 8.414,-12.73 0,-17.59 -8.41,-4.85 -22.051,-4.85 -30.465,0 -8.414,4.86 -8.414,12.73 0,17.59"
         style="fill:#17282f;fill-opacity:1;fill-rule:nonzero;stroke:none"
         id="path304" />
      <path
         d="m 789.805,3041.42 c 8.41,4.86 22.05,4.86 30.465,0 8.41,-4.85 8.41,-12.73 0,-17.58 -8.415,-4.86 -22.055,-4.86 -30.465,0 -8.414,4.85 -8.414,12.73 0,17.58"
         style="fill:#26b6a6;fill-opacity:1;fill-rule:nonzero;stroke:none"
         id="path306" />
      <path
         d="m 835.496,3067.81 c 8.414,4.85 22.055,4.85 30.469,0 8.414,-4.86 8.414,-12.73 0,-17.59 -8.414,-4.86 -22.055,-4.86 -30.469,0 -8.41,4.86 -8.41,12.73 0,17.59"
         style="fill:#17282f;fill-opacity:1;fill-rule:nonzero;stroke:none"
         id="path308" />
      <path
         d="m 819.922,3128.64 c 8.414,4.86 22.051,4.86 30.465,0 8.414,-4.86 8.414,-12.73 0,-17.59 -8.414,-4.86 -22.051,-4.86 -30.465,0 -8.414,4.86 -8.414,12.73 0,17.59"
         style="fill:#17282f;fill-opacity:1;fill-rule:nonzero;stroke:none"
         id="path310" />
      <path
         d="m 682.832,3260.55 c 8.41,4.86 22.051,4.86 30.465,0 8.414,-4.85 8.414,-12.73 0,-17.59 -8.414,-4.85 -22.055,-4.85 -30.465,0 -8.414,4.86 -8.414,12.74 0,17.59"
         style="fill:#26b6a6;fill-opacity:1;fill-rule:nonzero;stroke:none"
         id="path312" />
      <path
         d="m 743.758,3225.38 c 8.414,4.85 22.055,4.85 30.469,0 8.41,-4.86 8.41,-12.74 0,-17.59 -8.414,-4.86 -22.055,-4.86 -30.469,0 -8.41,4.85 -8.41,12.73 0,17.59"
         style="fill:#17282f;fill-opacity:1;fill-rule:nonzero;stroke:none"
         id="path314" />
      <path
         d="m 804.688,3190.2 c 8.414,4.85 22.05,4.85 30.464,0 8.414,-4.86 8.414,-12.73 0,-17.59 -8.414,-4.86 -22.05,-4.86 -30.464,0 -8.415,4.86 -8.415,12.73 0,17.59"
         style="fill:#26b6a6;fill-opacity:1;fill-rule:nonzero;stroke:none"
         id="path316" />
      <path
         d="m 865.617,3155.02 c 8.41,4.86 22.051,4.86 30.465,0 8.414,-4.86 8.414,-12.73 0,-17.59 -8.414,-4.85 -22.055,-4.85 -30.465,0 -8.414,4.86 -8.414,12.73 0,17.59"
         style="fill:#17282f;fill-opacity:1;fill-rule:nonzero;stroke:none"
         id="path318" />
      <path
         d="m 881.195,3094.16 c 8.41,4.86 22.051,4.86 30.465,0 8.41,-4.85 8.41,-12.73 0,-17.59 -8.414,-4.85 -22.055,-4.85 -30.465,0 -8.414,4.86 -8.414,12.74 0,17.59"
         style="fill:#26b6a6;fill-opacity:1;fill-rule:nonzero;stroke:none"
         id="path320" />
      <path
         d="m 926.891,3120.55 c 8.41,4.86 22.05,4.86 30.464,0 8.411,-4.86 8.411,-12.73 0,-17.59 -8.414,-4.86 -22.054,-4.86 -30.464,0 -8.414,4.86 -8.414,12.73 0,17.59"
         style="fill:#17282f;fill-opacity:1;fill-rule:nonzero;stroke:none"
         id="path322" />
      <path
         d="m 816.664,2970.7 v -46.8 c -4.902,-0.1 -9.902,0.8 -13.699,3 L 463.363,3123 c -7.199,4.1 -13,14.2 -13,22.5 v 16.9 c 0,7.3 4.5,16 10.602,20.8 -4.699,-4.1 -3.902,-9.7 2.398,-13.3 l 339.602,-196.1 c 3.797,-2.2 8.797,-3.2 13.699,-3.1"
         style="fill:#263e47;fill-opacity:1;fill-rule:nonzero;stroke:none"
         id="path324" />
      <path
         d="m 747.93,3335.98 0.3,0.41 c 3.282,4.44 9.821,5.8 14.606,3.04 L 1058.37,3168.8 c 4.78,-2.76 5.98,-8.59 2.68,-13.02 l -0.31,-0.41 c -3.3,-4.43 -9.85,-5.78 -14.64,-3.02 l -295.452,170.59 c -4.785,2.76 -6,8.6 -2.718,13.04"
         style="fill:#17282f;fill-opacity:1;fill-rule:nonzero;stroke:none"
         id="path326" />
      <path
         d="m 747.93,3335.98 0.3,0.41 c 3.282,4.44 9.821,5.8 14.606,3.04 l 219.719,-126.85 -12.262,-16.45 -219.645,126.81 c -4.785,2.76 -6,8.6 -2.718,13.04"
         style="fill:#26b6a6;fill-opacity:1;fill-rule:nonzero;stroke:none"
         id="path328" />
      <path
         d="m 772.363,3368.77 0.297,0.41 c 3.285,4.44 9.824,5.8 14.606,3.04 L 1082.8,3201.59 c 4.78,-2.76 5.98,-8.59 2.68,-13.02 l -0.31,-0.41 c -3.3,-4.43 -9.85,-5.78 -14.63,-3.02 l -295.462,170.59 c -4.781,2.76 -6,8.6 -2.715,13.04"
         style="fill:#17282f;fill-opacity:1;fill-rule:nonzero;stroke:none"
         id="path330" />
      <path
         d="m 772.363,3368.77 0.297,0.41 c 3.285,4.44 9.824,5.8 14.606,3.04 l 73.461,-42.39 -12.262,-16.45 -73.387,42.35 c -4.781,2.76 -6,8.6 -2.715,13.04"
         style="fill:#26b6a6;fill-opacity:1;fill-rule:nonzero;stroke:none"
         id="path332" />
      <path
         d="m 796.793,3401.56 0.301,0.41 c 3.281,4.44 9.82,5.8 14.601,3.04 l 295.535,-170.63 c 4.78,-2.76 5.98,-8.59 2.68,-13.02 l -0.31,-0.41 c -3.3,-4.43 -9.85,-5.78 -14.63,-3.02 l -295.458,170.59 c -4.785,2.76 -6,8.6 -2.719,13.04"
         style="fill:#17282f;fill-opacity:1;fill-rule:nonzero;stroke:none"
         id="path334" />
      <path
         d="m 796.793,3401.56 0.301,0.41 c 3.281,4.44 9.824,5.81 14.609,3.05 l 153.93,-88.59 -12.262,-16.45 -153.855,88.55 c -4.786,2.76 -6.004,8.59 -2.723,13.03"
         style="fill:#26b6a6;fill-opacity:1;fill-rule:nonzero;stroke:none"
         id="path336" />
      <path
         d="m 821.227,3434.35 0.296,0.41 c 3.286,4.44 9.825,5.8 14.606,3.04 l 295.531,-170.63 c 4.78,-2.76 5.99,-8.59 2.68,-13.02 l -0.3,-0.41 c -3.3,-4.43 -9.86,-5.78 -14.64,-3.02 l -295.459,170.59 c -4.781,2.76 -6,8.6 -2.714,13.04"
         style="fill:#17282f;fill-opacity:1;fill-rule:nonzero;stroke:none"
         id="path338" />
      <path
         d="m 821.227,3434.35 0.296,0.41 c 3.286,4.44 9.825,5.8 14.606,3.04 l 268.271,-154.88 -12.27,-16.45 -268.189,154.84 c -4.781,2.76 -6,8.6 -2.714,13.04"
         style="fill:#26b6a6;fill-opacity:1;fill-rule:nonzero;stroke:none"
         id="path340" />
      <path
         d="M 2191.33,1519.2 V 971.531 c 0,-4.14 2.91,-9.179 6.5,-11.25 L 2722.8,657.57 c 3.59,-2.07 9.4,-2.07 12.99,0 l 17.47,10.09 c 3.59,2.07 6.5,7.11 6.5,11.25 v 547.67 c 0,4.14 -3.36,7.5 -7.5,7.5 l -553.43,292.62 c -4.14,0 -7.5,-3.36 -7.5,-7.5"
         style="fill:#fafaf9;fill-opacity:1;fill-rule:nonzero;stroke:none"
         id="path342" />
      <path
         d="m 2752.26,1234.08 h -15.47 c -4.14,0 -7.5,-3.36 -7.5,-7.5 l 0.01,-565.26 c 0,-4.14 2.9,-5.82 6.49,-3.75 l 17.47,10.09 c 3.59,2.07 6.5,7.11 6.5,11.25 v 547.67 c 0,4.14 -3.36,7.5 -7.5,7.5"
         style="fill:#f3f2f1;fill-opacity:1;fill-rule:nonzero;stroke:none"
         id="path344" />
      <path
         d="m 3236.79,2146.76 v -547.67 c 0,-4.14 2.91,-9.17 6.49,-11.24 l 545.69,-314.8 c 3.59,-2.07 9.41,-2.07 12.99,0 l 17.48,10.09 c 3.58,2.07 6.49,7.11 6.49,11.25 v 547.67 c 0,4.14 -3.36,7.5 -7.5,7.5 l -574.14,304.7 c -4.14,0 -7.5,-3.36 -7.5,-7.5"
         style="fill:#dadbd8;fill-opacity:1;fill-rule:nonzero;stroke:none"
         id="path346" />
      <path
         d="m 3818.43,1849.56 h -15.47 c -4.14,0 -7.5,-3.36 -7.5,-7.5 l 0.01,-565.26 c 0,-4.14 2.91,-5.82 6.49,-3.75 l 17.48,10.09 c 3.58,2.07 6.49,7.11 6.49,11.25 v 547.67 c 0,4.14 -3.36,7.5 -7.5,7.5"
         style="fill:#e7e8e5;fill-opacity:1;fill-rule:nonzero;stroke:none"
         id="path348" />
      <path
         d="m 2140.15,1536.38 v 5.18 c 0,8.29 5.81,18.36 12.99,22.5 l 1101.23,635.8 c 7.18,4.14 18.81,4.14 25.98,0 l 583.33,-336.79 c 7.17,-4.14 12.99,-14.21 12.99,-22.5 v -5.17 c 0,-8.29 -5.82,-18.36 -12.99,-22.5 L 2762.45,1177.1 c -7.18,-4.14 -18.81,-4.14 -25.98,0 l -583.33,336.78 c -7.17,4.15 -12.99,14.22 -12.99,22.5"
         style="fill:#f3f2f1;fill-opacity:1;fill-rule:nonzero;stroke:none"
         id="path350" />
      <path
         d="m 2749.46,1209.15 v -35.2 c -4.7,0 -9.4,1.1 -13,3.1 l -583.3,336.8 c -7.2,4.2 -13,14.2 -13,22.5 v 5.2 c 0,7.3 4.5,16.1 10.6,20.8 -4.7,-4 -3.9,-9.6 2.4,-13.3 l 583.3,-336.8 c 3.6,-2.1 8.3,-3.1 13,-3.1"
         style="fill:#e7e8e5;fill-opacity:1;fill-rule:nonzero;stroke:none"
         id="path352" />
      <path
         d="m 2153.14,1549.06 583.33,-336.78 c 7.17,-4.14 18.8,-4.14 25.98,0 l 1101.23,635.79 c 7.17,4.15 7.17,10.86 0,15 l -583.33,336.79 c -7.17,4.14 -18.8,4.14 -25.98,0 l -1101.23,-635.8 c -7.18,-4.14 -7.18,-10.86 0,-15"
         style="fill:#fafaf9;fill-opacity:1;fill-rule:nonzero;stroke:none"
         id="path354" />
      <path
         d="m 3093.3,1784.19 329.78,190.78 c 5.89,3.4 15.45,3.4 21.34,0 l 104.42,-60.98 c 5.89,-3.4 5.89,-8.92 0,-12.32 l -329.79,-190.78 c -5.89,-3.4 -15.45,-3.4 -21.34,0 l -104.41,60.98 c -5.9,3.4 -5.9,8.92 0,12.32"
         style="fill:#e7e8e5;fill-opacity:1;fill-rule:nonzero;stroke:none"
         id="path356" />
      <path
         d="m 3151.76,1902.54 -0.3,0.15 -34.95,20.21 c -4.78,2.77 -4.78,7.25 0.01,10.01 l 274.04,158.25 c 4.78,2.76 4.78,7.24 0,10 l -2.79,1.61 c -4.78,2.76 -12.54,2.76 -17.32,0 l -266.31,-153.75 c -4.78,-2.77 -9.22,-3 -9.36,-0.48 -0.09,1.55 -0.01,3.08 0.28,4.55 l 15.1,78.19 c 1.05,5.42 -1.99,12.04 -6.78,14.78 l -2.74,1.57 c -4.8,2.74 -9.53,0.57 -10.57,-4.86 l -17.41,-90.78 c -0.63,-3.23 -0.65,-6.65 -0.16,-10.07 0.79,-5.47 -1.16,-11.84 -5.95,-14.61 l -166.23,-95.97 c -4.78,-2.76 -4.78,-7.24 0,-10 l 2.84,-1.64 c 4.78,-2.76 12.53,-2.76 17.32,0.01 l 158.86,91.73 c 4.78,2.76 8.97,4.79 9.33,4.52 l 0.69,-0.47 54.03,-31.19 c 4.78,-2.76 12.54,-2.78 17.33,-0.03 23.7,13.62 89.34,51.44 113.04,65.09 4.78,2.76 6.35,6.29 3.5,7.9 -2.85,1.6 -9.19,0.96 -14.17,-1.44 l -102.02,-49.1 c -4.98,-2.39 -9.15,-4.27 -9.31,-4.18"
         style="fill:#e7e8e5;fill-opacity:1;fill-rule:nonzero;stroke:none"
         id="path358" />
      <path
         d="m 3443.02,2000.23 98.78,-57.03 c 5.89,-3.4 10.67,-11.33 10.67,-17.72 0,-6.38 -4.78,-14.32 -10.67,-17.72 l -319.01,-184.18 c -5.89,-3.4 -15.45,-3.4 -21.34,0 l -98.78,57.03 c -5.89,3.41 -10.67,11.34 -10.67,17.72 0,6.39 4.78,14.32 10.67,17.72 l 319.01,184.18 c 5.89,3.4 15.45,3.41 21.34,0"
         style="fill:#263e47;fill-opacity:1;fill-rule:nonzero;stroke:none"
         id="path360" />
      <path
         d="m 3212.12,1721.03 c -3.86,0 -7.72,0.85 -10.67,2.55 l -98.78,57.03 c -5.89,3.41 -10.67,11.34 -10.67,17.72 0,6.39 4.78,14.32 10.67,17.72 l 10.27,5.93 h 99.18 v -100.95"
         style="fill:#17282f;fill-opacity:1;fill-rule:nonzero;stroke:none"
         id="path362" />
      <path
         d="m 3102.61,1816.05 319,184.18 c 5.9,3.4 15.45,3.4 21.35,0 l 98.78,-57.03 c 5.9,-3.41 5.9,-8.92 0,-12.32 l -319,-184.18 c -5.9,-3.4 -15.45,-3.4 -21.34,0 l -98.79,57.03 c -5.89,3.4 -5.89,8.92 0,12.32"
         style="fill:#33535f;fill-opacity:1;fill-rule:nonzero;stroke:none"
         id="path364" />
      <path
         d="m 3279.23,1892.25 1.6,-0.04 10.04,5.8 -0.05,0.93 -11.62,6.7 -1.6,0.04 -10.04,-5.8 0.05,-0.93 z m 119.51,73.92 1.6,-0.03 10.05,5.79 -0.06,0.93 -3.09,1.78 -1.6,0.04 -10.05,-5.8 0.06,-0.93 z m 90.46,-34.38 10.04,5.8 -0.05,0.92 -11.62,6.71 -1.6,0.03 -10.05,-5.8 0.06,-0.92 11.62,-6.71 z m -36.7,37.24 1.6,-0.03 10.05,5.8 -0.06,0.92 -11.62,6.71 -1.6,0.03 -10.04,-5.8 0.06,-0.92 z m -24.4,14.09 1.6,-0.03 10.05,5.8 -0.06,0.92 -3.09,1.79 -1.6,0.03 -10.05,-5.8 0.06,-0.93 z m -44.04,-25.43 1.6,-0.03 10.05,5.8 -0.06,0.92 -3.09,1.79 -1.6,0.03 -10.05,-5.8 0.06,-0.92 z m -75.47,-48.49 1.6,-0.04 10.04,5.8 -0.05,0.93 -11.62,6.7 -1.6,0.04 -10.04,-5.8 0.05,-0.93 z m -14.68,-8.48 1.6,-0.03 10.04,5.8 -0.05,0.92 -11.62,6.71 -1.6,0.03 -10.04,-5.8 0.05,-0.92 z m 61.96,35.78 1.6,-0.04 10.05,5.8 -0.06,0.93 -11.61,6.7 -1.61,0.04 -10.04,-5.8 0.06,-0.93 z m -32.6,-18.83 1.6,-0.03 10.04,5.8 -0.05,0.92 -11.62,6.71 -1.6,0.03 -10.04,-5.8 0.05,-0.92 z m 47.28,27.3 1.6,-0.03 10.05,5.8 -0.06,0.92 -11.61,6.71 -1.6,0.03 -10.05,-5.8 0.06,-0.92 z m -29.36,-16.95 1.61,-0.03 10.04,5.8 -0.06,0.92 -11.61,6.71 -1.6,0.03 -10.05,-5.8 0.06,-0.92 z m 72.23,46.62 1.6,-0.03 10.05,5.8 -0.06,0.92 -3.09,1.79 -1.6,0.03 -10.05,-5.8 0.06,-0.92 z m -67.16,-125.38 10.05,5.8 -0.06,0.93 -11.62,6.7 -1.6,0.03 -10.04,-5.79 0.05,-0.93 11.62,-6.71 z m -29.36,-16.95 10.04,5.8 -0.05,0.93 -11.62,6.7 -1.6,0.03 -10.04,-5.8 0.05,-0.92 11.62,-6.71 z m 14.68,8.48 10.04,5.79 -0.05,0.93 -11.62,6.71 -1.6,0.03 -10.04,-5.8 0.05,-0.92 11.62,-6.71 z m -58.72,-33.91 10.05,5.8 -0.06,0.93 -11.62,6.7 -1.6,0.04 -10.04,-5.8 0.05,-0.93 11.62,-6.7 z m 29.36,16.96 10.05,5.79 -0.06,0.93 -11.62,6.71 -1.6,0.03 -10.04,-5.8 0.05,-0.93 11.62,-6.7 z m -14.68,-8.48 10.05,5.8 -0.06,0.92 -11.62,6.71 -1.6,0.03 -10.04,-5.8 0.05,-0.92 11.62,-6.71 z m 138.24,80.77 1.61,-0.03 10.04,5.8 -0.06,0.92 -11.61,6.71 -1.6,0.03 -10.05,-5.8 0.06,-0.92 z m -64.84,-38.39 10.05,5.8 -0.06,0.92 -11.62,6.71 -1.6,0.03 -10.04,-5.8 0.05,-0.92 11.62,-6.71 z m 82.31,66.67 10.04,5.8 -0.06,0.93 -11.61,6.7 -1.6,0.04 -10.05,-5.8 0.06,-0.93 11.61,-6.7 z m 14.99,-9.54 1.6,-0.03 10.04,5.79 -0.05,0.93 -11.62,6.71 -1.6,0.03 -10.05,-5.8 0.06,-0.93 z m -82.62,-48.66 29.36,16.95 -0.06,0.93 -11.61,6.71 -1.6,0.03 -29.36,-16.95 0.05,-0.93 11.62,-6.7 z m 33.26,57.52 10.05,5.8 -0.06,0.93 -11.61,6.7 -1.61,0.04 -10.04,-5.8 0.06,-0.93 11.61,-6.7 z m 65.64,-0.42 10.04,5.8 -0.05,0.93 -11.62,6.7 -1.6,0.03 -10.05,-5.8 0.06,-0.92 11.62,-6.71 z m -32.17,-23.36 -1.6,0.03 -10.05,-5.8 0.06,-0.92 11.62,-6.71 1.6,-0.03 10.04,5.8 -0.05,0.93 z m -52.54,-30.33 -1.6,0.03 -12.36,-7.14 0.06,-0.92 11.61,-6.71 1.6,-0.03 12.36,7.14 -0.05,0.92 z m -155.3,-89.66 -1.6,0.03 -12.36,-7.14 0.06,-0.92 11.61,-6.71 1.6,-0.03 12.37,7.13 -0.06,0.93 z m 121.31,70.03 -1.61,0.03 -12.36,-7.13 0.06,-0.93 11.61,-6.7 1.61,-0.04 12.36,7.14 -0.06,0.92 z m -104.31,-60.22 -1.6,0.03 -12.36,-7.14 0.05,-0.92 11.62,-6.71 1.6,-0.03 12.36,7.14 -0.05,0.92 z m 87.31,50.41 -1.6,0.03 -82.67,-47.73 0.05,-0.93 11.62,-6.7 1.6,-0.03 82.67,47.72 -0.06,0.93 z m 71.08,41.04 -1.6,0.03 -15.45,-8.92 0.05,-0.93 11.62,-6.7 1.6,-0.04 15.45,8.92 -0.05,0.93 z m -37.08,-21.42 -1.61,0.04 -12.36,-7.14 0.06,-0.93 11.61,-6.7 1.6,-0.03 12.37,7.13 -0.06,0.93 z m 157.64,77.61 -28.21,16.28 -1.6,0.04 -10.05,-5.8 0.06,-0.93 28.21,-16.28 1.6,-0.04 10.04,5.8 z m -26.3,-1.77 -1.6,0.03 -10.04,-5.8 0.05,-0.92 11.62,-6.71 1.6,-0.03 10.04,5.8 -0.05,0.92 z m -76.49,-44.16 -1.6,0.03 -10.04,-5.8 0.05,-0.93 11.62,-6.7 1.6,-0.03 10.04,5.79 -0.05,0.93 z m -169.49,-93.07 10.05,5.8 -0.06,0.92 -11.62,6.71 -1.6,0.03 -10.04,-5.8 0.05,-0.92 11.62,-6.71 z m 198.85,110.02 -1.6,0.03 -10.04,-5.8 0.05,-0.93 11.62,-6.7 1.6,-0.03 10.04,5.8 -0.05,0.92 z m 32.45,18.73 -1.6,0.03 -24.72,-14.27 0.05,-0.93 11.62,-6.7 1.6,-0.03 24.72,14.27 -0.05,0.93 z m -311.11,-93.14 1.6,-0.04 10.05,5.8 -0.06,0.93 -11.61,6.7 -1.6,0.04 -10.05,-5.8 0.06,-0.93 z m 14.68,8.47 1.61,-0.03 10.04,5.8 -0.06,0.92 -11.61,6.71 -1.6,0.03 -10.05,-5.8 0.06,-0.92 z m 24.47,-72.35 -1.61,0.03 -15.45,-8.92 0.06,-0.92 11.61,-6.71 1.6,-0.03 15.46,8.92 -0.06,0.93 z m -3.4,84.52 1.6,-0.04 10.05,5.8 -0.06,0.93 -11.61,6.7 -1.61,0.04 -10.04,-5.8 0.06,-0.93 z m 29.36,16.95 1.6,-0.04 10.05,5.8 -0.06,0.93 -11.61,6.7 -1.61,0.04 -10.04,-5.8 0.06,-0.93 z m -79.79,-46.07 1.6,-0.03 10.05,5.8 -0.06,0.92 -11.61,6.71 -1.6,0.03 -10.05,-5.8 0.06,-0.92 z m 65.11,37.59 1.6,-0.03 10.05,5.8 -0.06,0.92 -11.61,6.71 -1.61,0.03 -10.04,-5.8 0.06,-0.92 z m 29.36,16.95 1.6,-0.03 10.05,5.8 -0.06,0.92 -11.61,6.71 -1.61,0.03 -10.04,-5.8 0.06,-0.92 z m -48.71,-108.85 -11.62,6.71 -1.6,0.03 -12.36,-7.14 0.06,-0.92 11.61,-6.71 1.6,-0.03 12.37,7.14 z m -9.64,13.6 -11.61,6.7 -1.61,0.03 -19.31,-11.15 0.05,-0.92 11.62,-6.71 1.6,-0.03 19.32,11.15 z m -50.8,32.24 1.61,-0.04 10.04,5.8 -0.06,0.93 -11.61,6.7 -1.6,0.04 -10.05,-5.8 0.06,-0.93 z m -9.47,-5.47 -11.62,6.7 -1.6,0.03 -12.36,-7.13 0.05,-0.93 11.62,-6.7 1.6,-0.04 12.36,7.14 z m 39.81,-19.43 -11.61,6.71 -1.6,0.03 -15.45,-8.92 0.05,-0.92 11.62,-6.71 1.6,-0.03 15.45,8.92 z m -21.99,6.46 -11.62,6.71 -1.6,0.03 -10.05,-5.8 0.06,-0.92 11.61,-6.71 1.61,-0.03 10.04,5.8 z m 86.14,-8.7 10.05,5.8 -0.06,0.93 -11.62,6.7 -1.6,0.04 -10.04,-5.8 0.05,-0.93 11.62,-6.7 z m 10.72,59.84 -10.05,-5.8 0.06,-0.93 11.62,-6.7 1.6,-0.04 10.04,5.8 -0.05,0.93 -11.62,6.7 z m -14.68,-8.48 -10.05,-5.8 0.06,-0.92 11.62,-6.71 1.6,-0.03 10.04,5.8 -0.05,0.92 -11.62,6.71 z m 58.72,33.9 -10.05,-5.8 0.06,-0.92 11.62,-6.71 1.6,-0.03 10.04,5.8 -0.06,0.92 -11.61,6.71 z m -29.36,-16.95 -10.05,-5.8 0.06,-0.92 11.62,-6.71 1.6,-0.03 10.04,5.8 -0.05,0.92 -11.62,6.71 z m 14.68,8.48 -10.05,-5.8 0.06,-0.93 11.62,-6.7 1.6,-0.04 10.04,5.8 -0.05,0.93 -11.62,6.7 z m -58.72,-33.91 -10.05,-5.79 0.06,-0.93 11.61,-6.71 1.61,-0.03 10.04,5.8 -0.06,0.93 -11.61,6.7 z m -14.68,-8.47 -10.05,-5.8 0.06,-0.93 11.62,-6.7 1.6,-0.03 10.04,5.8 -0.05,0.92 -11.62,6.71 z m 53.04,-3.86 10.05,5.8 -0.06,0.92 -11.61,6.71 -1.61,0.03 -10.04,-5.8 0.06,-0.92 11.61,-6.71 z m -14.68,-8.48 10.05,5.8 -0.06,0.93 -11.61,6.7 -1.61,0.04 -10.04,-5.8 0.06,-0.93 11.61,-6.7 z m -14.68,-8.47 10.05,5.8 -0.06,0.92 -11.61,6.71 -1.61,0.03 -10.04,-5.8 0.06,-0.92 11.61,-6.71 z m -38.36,12.33 -10.05,-5.8 0.06,-0.92 11.62,-6.71 1.6,-0.03 10.04,5.8 -0.06,0.93 -11.61,6.7 z m 22.08,-20.77 1.6,-0.04 10.05,5.8 -0.06,0.93 -11.61,6.7 -1.61,0.03 -10.04,-5.79 0.06,-0.93 z m 110.04,97.05 -10.05,-5.8 0.06,-0.92 11.61,-6.71 1.61,-0.03 10.04,5.8 -0.06,0.92 -11.61,6.71 z m 128.7,40.78 1.61,-0.03 10.04,5.8 -0.06,0.92 -11.61,6.71 -1.6,0.03 -10.05,-5.8 0.06,-0.92 z m -143.38,-49.25 -10.05,-5.8 0.06,-0.93 11.62,-6.7 1.6,-0.03 10.04,5.79 -0.06,0.93 -11.61,6.7 z m 110.49,63.79 -10.05,-5.8 0.06,-0.93 11.61,-6.7 1.6,-0.04 10.05,5.8 -0.06,0.93 -11.61,6.7 z m 34.05,18.7 28.2,-16.29 1.61,-0.03 10.04,5.8 -0.06,0.93 -28.2,16.28 -1.61,0.03 -10.04,-5.8 z m -3.09,-1.78 -1.61,0.03 -10.04,-5.8 0.06,-0.93 11.61,-6.7 1.6,-0.03 10.05,5.79 -0.06,0.93 z m -13.06,-21.91 10.05,5.8 -0.06,0.92 -11.61,6.71 -1.6,0.03 -10.05,-5.8 0.06,-0.92 11.61,-6.71 z m 31.28,-1.1 10.04,5.79 -0.06,0.93 -11.61,6.71 -1.6,0.03 -10.05,-5.8 0.06,-0.93 11.61,-6.7 z m -180.03,-103.94 10.05,5.8 -0.06,0.92 -11.61,6.71 -1.61,0.03 -10.04,-5.8 0.06,-0.92 11.61,-6.71 z m 145.22,136.52 -1.61,0.04 -10.04,-5.8 0.06,-0.93 11.61,-6.7 1.6,-0.04 10.05,5.8 -0.06,0.93 z m -92.27,-86.79 10.04,5.79 -0.06,0.93 -11.61,6.71 -1.6,0.03 -10.05,-5.8 0.06,-0.93 11.62,-6.7 z m 75.98,78.35 -10.04,-5.8 0.06,-0.92 11.61,-6.71 1.6,-0.03 10.05,5.8 -0.06,0.92 -11.61,6.71 z m -32.45,-18.73 -10.04,-5.8 0.06,-0.93 11.61,-6.7 1.6,-0.04 10.05,5.8 -0.06,0.93 -11.62,6.7 z m 17.77,10.26 -10.04,-5.8 0.06,-0.93 11.61,-6.7 1.6,-0.04 10.05,5.8 -0.06,0.93 -11.61,6.7 z m -128.93,-128.09 10.05,5.8 -0.06,0.93 -11.61,6.7 -1.61,0.04 -10.04,-5.8 0.06,-0.93 11.61,-6.7 z m -75.04,10.32 -10.05,-5.8 0.06,-0.92 11.62,-6.71 1.6,-0.03 10.04,5.8 -0.06,0.92 -11.61,6.71 z m 14.68,8.48 -10.05,-5.8 0.06,-0.93 11.62,-6.7 1.6,-0.04 10.04,5.8 -0.06,0.93 -11.61,6.7 z m 14.68,8.47 -10.05,-5.8 0.06,-0.92 11.62,-6.71 1.6,-0.03 10.04,5.8 -0.06,0.92 -11.61,6.71 z m 29.36,16.95 -10.05,-5.8 0.06,-0.92 11.62,-6.71 1.6,-0.03 10.04,5.8 -0.05,0.92 -11.62,6.71 z m -73.4,-42.37 -10.05,-5.8 0.06,-0.93 11.62,-6.7 1.6,-0.04 10.04,5.8 -0.06,0.93 -11.61,6.7 z m 58.72,33.9 -10.05,-5.8 0.06,-0.93 11.61,-6.7 1.61,-0.04 10.04,5.8 -0.05,0.93 -11.62,6.7 z m -73.4,-42.38 -10.05,-5.8 0.06,-0.92 11.62,-6.71 1.6,-0.03 10.04,5.8 -0.06,0.92 -11.61,6.71 z m 39.04,-49.3 1.6,-0.04 10.05,5.8 -0.06,0.93 -11.62,6.7 -1.6,0.04 -10.04,-5.8 0.05,-0.93 z m 16.28,8.44 10.04,5.8 -0.05,0.92 -11.62,6.71 -1.6,0.03 -10.04,-5.8 0.05,-0.92 11.62,-6.71 z m -46.37,12.5 1.6,-0.04 10.04,5.8 -0.06,0.93 -11.61,6.7 -1.6,0.04 -10.05,-5.8 0.06,-0.93 z m -23.63,19.88 -10.05,-5.79 0.06,-0.93 11.62,-6.7 1.6,-0.04 10.04,5.8 -0.06,0.93 -11.61,6.7 z m 44.08,-27.23 1.6,-0.03 10.05,5.8 -0.06,0.92 -11.61,6.71 -1.61,0.03 -10.04,-5.8 0.06,-0.93 z m 73.36,95.04 -10.05,-5.8 0.06,-0.93 11.62,-6.7 1.6,-0.03 10.04,5.8 -0.05,0.92 -11.62,6.71 z m 14.68,8.47 -10.05,-5.79 0.06,-0.93 11.62,-6.71 1.6,-0.03 10.04,5.8 -0.06,0.93 -11.61,6.7 z m 75.04,-10.31 22.41,12.93 -0.06,0.93 -28.2,16.28 -1.61,0.04 -11.58,-6.69 0.05,-0.93 14.93,-8.62 0.06,-0.93 -9.27,-5.35 0.06,-0.92 11.61,-6.71 z m 13.54,26.97 10.05,5.8 -0.06,0.93 -11.61,6.7 -1.6,0.04 -10.05,-5.8 0.06,-0.93 11.61,-6.7 z m -72.26,-60.87 10.05,5.79 -0.06,0.93 -11.61,6.7 -1.61,0.04 -10.04,-5.8 0.06,-0.93 11.61,-6.7 z m 14.68,8.47 10.05,5.8 -0.06,0.92 -11.61,6.71 -1.61,0.03 -10.04,-5.8 0.06,-0.92 11.61,-6.71 z m 14.68,8.48 10.05,5.79 -0.06,0.93 -11.61,6.71 -1.61,0.03 -10.04,-5.8 0.06,-0.93 11.61,-6.7 z m 14.68,8.47 10.05,5.8 -0.06,0.93 -11.61,6.7 -1.61,0.03 -10.04,-5.79 0.06,-0.93 11.61,-6.71 z m -45.68,27.27 -10.05,-5.8 0.06,-0.92 11.62,-6.71 1.6,-0.03 10.04,5.8 -0.06,0.92 -11.61,6.71 z m 14.68,8.48 -10.05,-5.8 0.06,-0.93 11.62,-6.7 1.6,-0.04 10.04,5.8 -0.06,0.93 -11.61,6.7 z m 39.4,22.75 -10.04,-5.8 0.06,-0.93 11.61,-6.7 1.6,-0.04 10.05,5.8 -0.06,0.93 -11.62,6.7 z m -17.77,-10.26 -17,-9.82 0.06,-0.92 11.62,-6.71 1.6,-0.03 17,9.81 -0.06,0.93 -11.62,6.7 z m 32.45,18.73 -10.04,-5.8 0.06,-0.92 11.61,-6.71 1.6,-0.03 10.05,5.8 -0.06,0.92 -11.62,6.71 z m 19.82,-23.04 10.05,5.8 -0.06,0.92 -11.61,6.71 -1.61,0.03 -10.04,-5.8 0.06,-0.92 11.61,-6.71 1.6,-0.03"
         style="fill:#26b6a6;fill-opacity:1;fill-rule:nonzero;stroke:none"
         id="path366" />
      <path
         d="m 3272.08,1983.26 -120.02,-69.32 -0.6,0.31 -45.3,26.2 c -7.8,4.5 -12.8,15.4 -11.1,24.2 l 17,88 100,80.9 20,-11.6 -16.9,-88 c -1.7,-8.8 3.2,-19.7 11,-24.2 l 45.92,-26.49"
         style="fill:#33535f;fill-opacity:1;fill-rule:nonzero;stroke:none"
         id="path368" />
      <path
         d="m 3152.06,1913.94 v -23.09 l -62.7,36.2 c -11.8,6.7 -19.3,23.2 -16.7,36.5 l 19.3,100.6 20.1,-11.5 -17,-88 c -1.7,-8.8 3.3,-19.7 11.1,-24.2 l 45.3,-26.2 0.6,-0.31"
         style="fill:#17282f;fill-opacity:1;fill-rule:nonzero;stroke:none"
         id="path370" />
      <path
         d="m 3272.08,1983.26 -120.02,-69.32 v -23.14 l 120.04,69.36 -0.02,23.1"
         style="fill:#263e47;fill-opacity:1;fill-rule:nonzero;stroke:none"
         id="path372" />
      <path
         d="m 3382.3,2567 c 5.53,-3.2 10.01,-11.3 10.01,-18.1 v -368.36 c 0,-6.81 -4.78,-15.08 -10.67,-18.48 l -459.15,-265.1 c -5.9,-3.4 -15.16,-3.57 -20.68,-0.38 -5.53,3.2 -10.01,11.3 -10.01,18.11 v 368.35 c 0,6.81 4.78,15.08 10.67,18.48 l 459.15,265.1 c 5.89,3.4 15.15,3.57 20.68,0.38"
         style="fill:#33535f;fill-opacity:1;fill-rule:nonzero;stroke:none"
         id="path374" />
      <path
         d="m 2922.49,1896.96 c -5.9,-3.4 -15.16,-3.57 -20.68,-0.38 -5.53,3.2 -10.01,11.3 -10.01,18.11 v 368.35 c 0,3.4 1.19,7.17 3.12,10.52 l 357.24,-206.26 -329.67,-190.34"
         style="fill:#17282f;fill-opacity:1;fill-rule:nonzero;stroke:none"
         id="path376" />
      <path
         d="m 3392.31,2180.54 v 368.36 c 0,6.8 -4.78,9.56 -10.67,6.16 l -459.15,-265.09 c -5.89,-3.41 -10.67,-11.68 -10.67,-18.49 v -368.35 c 0,-6.81 4.77,-9.57 10.67,-6.17 l 459.15,265.1 c 5.89,3.4 10.67,11.67 10.67,18.48"
         style="fill:#263e47;fill-opacity:1;fill-rule:nonzero;stroke:none"
         id="path378" />
      <path
         d="m 3366.17,2534.48 -435.81,-251.53 c -4.71,-2.72 -8.53,-9.34 -8.53,-14.78 v -327.05 c 0,-5.44 3.82,-7.65 8.54,-4.93 l 435.8,251.53 c 4.72,2.72 8.54,9.34 8.54,14.78 v 327.05 c 0,5.45 -3.83,7.65 -8.54,4.93"
         style="fill:#ffffff;fill-opacity:1;fill-rule:nonzero;stroke:none"
         id="path380" />
      <path
         d="m 2756.9,1341.37 -258.47,149.11 c -7.17,4.14 -12.99,14.22 -12.99,22.5 l -0.03,157.63 c 0,8.29 5.81,18.36 12.99,22.5 l 177.15,102.25 c 7.18,4.14 18.81,4.14 25.98,0 l 258.31,-149.13 c 7.17,-4.15 12.99,-14.22 13,-22.5 l 0.09,-157.62 c 0,-8.29 -5.81,-18.36 -12.98,-22.5 l -177.07,-102.24 c -7.18,-4.14 -18.81,-4.14 -25.98,0"
         style="fill:#17282f;fill-opacity:1;fill-rule:nonzero;stroke:none"
         id="path382" />
      <path
         d="m 2782.8,1528.97 177.04,102.25 c 7.17,4.15 7.17,10.86 0,15.01 l -258.31,149.13 c -7.17,4.14 -18.8,4.14 -25.98,0 L 2498.4,1693.11 c -7.18,-4.14 -7.18,-10.85 0,-14.99 l 258.42,-149.16 c 7.17,-4.14 18.8,-4.14 25.98,0.01"
         style="fill:#33535f;fill-opacity:1;fill-rule:nonzero;stroke:none"
         id="path384" />
      <path
         d="m 2769.86,1525.85 v -187.6 c -4.7,0 -9.4,1.1 -13,3.1 l -258.4,149.1 c -7.2,4.2 -13,14.2 -13,22.5 l -0.1,157.7 c 0,6.93 4.28,14.99 9.87,19.93 -3.65,-4.03 -2.66,-9.09 3.13,-12.43 l 258.5,-149.2 c 3.6,-2 8.2,-3.1 13,-3.1"
         style="fill:#263e47;fill-opacity:1;fill-rule:nonzero;stroke:none"
         id="path386" />
      <path
         d="m 2563.12,1683.58 c 4.64,2.74 12.28,2.71 17.06,-0.05 l 185.79,-107.26 c 4.78,-2.76 4.89,-7.22 0.25,-9.95 -4.64,-2.73 -12.28,-2.71 -17.06,0.05 l -185.78,107.26 c -4.78,2.77 -4.9,7.22 -0.26,9.95"
         style="fill:#263e47;fill-opacity:1;fill-rule:nonzero;stroke:none"
         id="path388" />
      <path
         d="m 2563.12,1683.58 c 4.64,2.74 12.28,2.71 17.06,-0.05 l 113.11,-65.31 -16.81,-9.9 -113.1,65.31 c -4.78,2.77 -4.9,7.22 -0.26,9.95"
         style="fill:#26b6a6;fill-opacity:1;fill-rule:nonzero;stroke:none"
         id="path390" />
      <path
         d="m 2595.34,1702.19 c 4.64,2.73 12.28,2.71 17.06,-0.05 l 185.79,-107.26 c 4.78,-2.77 4.89,-7.22 0.25,-9.95 -4.64,-2.74 -12.28,-2.71 -17.06,0.05 l -185.78,107.26 c -4.78,2.76 -4.9,7.22 -0.26,9.95"
         style="fill:#263e47;fill-opacity:1;fill-rule:nonzero;stroke:none"
         id="path392" />
      <path
         d="m 2595.34,1702.19 c 4.64,2.73 12.28,2.71 17.07,-0.04 l 15.15,-8.72 -16.81,-9.9 -15.15,8.72 c -4.78,2.76 -4.9,7.21 -0.26,9.94"
         style="fill:#26b6a6;fill-opacity:1;fill-rule:nonzero;stroke:none"
         id="path394" />
      <path
         d="m 2627.56,1720.79 c 4.64,2.74 12.27,2.71 17.06,-0.05 l 185.78,-107.26 c 4.79,-2.76 4.9,-7.21 0.26,-9.95 -4.64,-2.73 -12.28,-2.71 -17.06,0.05 l -185.78,107.27 c -4.79,2.76 -4.9,7.21 -0.26,9.94"
         style="fill:#263e47;fill-opacity:1;fill-rule:nonzero;stroke:none"
         id="path396" />
      <path
         d="m 2627.56,1720.79 c 4.64,2.74 12.27,2.71 17.06,-0.05 l 65.69,-37.93 -16.81,-9.89 -65.68,37.92 c -4.79,2.77 -4.9,7.22 -0.26,9.95"
         style="fill:#26b6a6;fill-opacity:1;fill-rule:nonzero;stroke:none"
         id="path398" />
      <path
         d="m 2659.79,1739.4 c 4.64,2.73 12.28,2.71 17.06,-0.05 l 185.79,-107.26 c 4.78,-2.77 4.9,-7.22 0.25,-9.95 -4.64,-2.74 -12.28,-2.71 -17.06,0.05 l -185.78,107.26 c -4.78,2.76 -4.9,7.22 -0.26,9.95"
         style="fill:#263e47;fill-opacity:1;fill-rule:nonzero;stroke:none"
         id="path400" />
      <path
         d="m 2659.79,1739.4 c 4.64,2.73 12.28,2.71 17.06,-0.05 l 133.05,-76.81 -16.8,-9.9 -133.05,76.81 c -4.78,2.76 -4.9,7.22 -0.26,9.95"
         style="fill:#26b6a6;fill-opacity:1;fill-rule:nonzero;stroke:none"
         id="path402" />
      <path
         d="m 2692.01,1758 c 4.64,2.74 12.28,2.71 17.06,-0.05 l 185.79,-107.26 c 4.78,-2.76 4.89,-7.21 0.25,-9.95 -4.64,-2.73 -12.28,-2.71 -17.06,0.05 l -185.78,107.27 c -4.78,2.76 -4.9,7.21 -0.26,9.94"
         style="fill:#263e47;fill-opacity:1;fill-rule:nonzero;stroke:none"
         id="path404" />
      <path
         d="m 2692.01,1758 c 4.64,2.74 12.28,2.72 17.06,-0.05 l 167.34,-96.56 -16.8,-9.9 -167.34,96.57 c -4.78,2.76 -4.9,7.21 -0.26,9.94"
         style="fill:#26b6a6;fill-opacity:1;fill-rule:nonzero;stroke:none"
         id="path406" />
      <path
         d="m 2790.12,1392.66 v 31.94 c 0,8.29 4.54,17.63 10.15,20.86 5.61,3.24 10.16,-0.85 10.16,-9.13 v -31.94 c 0,-8.29 -4.55,-17.63 -10.16,-20.87 -5.61,-3.23 -10.15,0.86 -10.15,9.14"
         style="fill:#263e47;fill-opacity:1;fill-rule:nonzero;stroke:none"
         id="path408" />
      <path
         d="m 2800.76,1440.66 c -3.72,-2.15 -6.73,-7.37 -6.73,-11.66 0,-4.29 3.01,-6.03 6.73,-3.88 3.72,2.14 6.73,7.36 6.73,11.65 0,4.3 -3.01,6.04 -6.73,3.89"
         style="fill:#26b6a6;fill-opacity:1;fill-rule:nonzero;stroke:none"
         id="path410" />
      <path
         d="M 2822.17,1411.06 V 1443 c 0,8.28 4.55,17.62 10.16,20.86 5.61,3.24 10.15,-0.85 10.15,-9.14 v -31.94 c 0,-8.28 -4.54,-17.62 -10.15,-20.86 -5.61,-3.24 -10.16,0.85 -10.16,9.14"
         style="fill:#263e47;fill-opacity:1;fill-rule:nonzero;stroke:none"
         id="path412" />
      <path
         d="m 2832.33,1422.27 c -3.72,-2.15 -6.73,-7.37 -6.73,-11.66 0,-4.29 3.01,-6.03 6.73,-3.89 3.72,2.15 6.73,7.37 6.73,11.66 0,4.29 -3.01,6.03 -6.73,3.89"
         style="fill:#26b6a6;fill-opacity:1;fill-rule:nonzero;stroke:none"
         id="path414" />
      <path
         d="m 3420.84,1016.5 c 3.81,-5.04 4.49,-16.699 8.35,-32.469 3.86,-15.761 5.16,-27.98 2.58,-35.699 -2.58,-7.711 -19.53,-25.082 -40.32,-31.512 -20.78,-6.429 -46.35,-1.031 -71.1,13.762 -24.74,14.789 -43.42,32.789 -78.67,42.816 -35.25,10.032 -52.89,18.172 -69.58,31.572 -19.54,15.7 -32.15,39.19 5.24,49.22 37.7,10.11 105.22,-5.53 179.18,-8.74 l 64.32,-28.95"
         style="fill:#17282f;fill-opacity:1;fill-rule:nonzero;stroke:none"
         id="path416" />
      <path
         d="m 3420.84,1062.74 v -55.4 c 0,0 -7.61,-18.418 -39.2,-19.59 -19.26,-0.719 -33.3,8.09 -41.9,20.06 v 54.93 h 81.1"
         style="fill:#f6879f;fill-opacity:1;fill-rule:nonzero;stroke:none"
         id="path418" />
      <path
         d="m 3315.03,1425.21 c -0.4,-68.93 19.35,-386.75 19.35,-386.75 0,0 28.19,-35.66 89.41,0 l 20.79,352.67 -129.55,34.08"
         style="fill:#263e47;fill-opacity:1;fill-rule:nonzero;stroke:none"
         id="path420" />
      <path
         d="m 3254.55,908.172 c 3.81,-5.051 4.5,-16.711 8.35,-32.473 3.86,-15.769 5.16,-27.98 2.58,-35.699 -2.58,-7.719 -19.53,-25.078 -40.31,-31.512 -20.79,-6.437 -46.36,-1.039 -71.1,13.75 -24.75,14.801 -43.43,32.793 -78.68,42.821 -35.25,10.031 -52.89,18.171 -69.58,31.582 -19.54,15.687 -32.14,39.179 5.24,49.211 37.7,10.117 105.22,-5.532 179.18,-8.743 l 64.32,-28.937"
         style="fill:#17282f;fill-opacity:1;fill-rule:nonzero;stroke:none"
         id="path422" />
      <path
         d="m 3254.55,954.41 v -55.398 c 0,0 -7.6,-18.43 -39.19,-19.602 -19.27,-0.719 -33.31,8.102 -41.91,20.07 v 54.93 h 81.1"
         style="fill:#f6879f;fill-opacity:1;fill-rule:nonzero;stroke:none"
         id="path424" />
      <path
         d="m 3148.74,1316.87 c -0.4,-68.92 19.36,-386.749 19.36,-386.749 0,0 28.18,-35.66 89.4,0 l 20.79,352.669 -129.55,34.08"
         style="fill:#263e47;fill-opacity:1;fill-rule:nonzero;stroke:none"
         id="path426" />
      <path
         d="m 3363.02,662.781 c 0,-2.832 0.34,-5.402 0.83,-7.73 1.25,-4.91 3.66,-8.571 6.99,-10.813 l 0.25,-0.168 c 5.4,-3.488 13.06,-3.16 21.46,1.66 16.3,9.399 29.52,32.27 29.52,51.149 0,9.152 -3.24,15.473 -8.32,18.711 l 0.09,0.09 -1.42,0.832 h -0.08 c -3.58,1.578 -7.82,1.828 -12.56,0.5 -2.33,-0.672 -4.74,-1.75 -7.23,-3.172 -16.3,-9.391 -29.53,-32.262 -29.53,-51.059"
         style="fill:#33535f;fill-opacity:1;fill-rule:nonzero;stroke:none"
         id="path428" />
      <path
         d="m 3371.09,726.238 c 4.66,2.66 9.15,3.992 13.14,3.992 3.08,0 5.9,-0.832 8.32,-2.332 l 0.74,-0.418 19.05,-10.968 c -3.58,1.578 -7.82,1.828 -12.56,0.5 -2.33,-0.672 -4.74,-1.75 -7.23,-3.172 -16.3,-9.391 -29.53,-32.262 -29.53,-51.059 0,-2.832 0.34,-5.402 0.83,-7.73 1.25,-4.91 3.66,-8.571 6.99,-10.813 l -19.54,11.313 -0.34,0.16 -1.66,1 -0.5,0.328 c -4.49,3.332 -7.23,9.652 -7.23,18.133 0,18.797 13.22,41.668 29.52,51.066"
         style="fill:#17282f;fill-opacity:1;fill-rule:nonzero;stroke:none"
         id="path430" />
      <path
         d="m 3682.41,834.531 c 0,-2.832 0.33,-5.41 0.83,-7.742 1.25,-4.91 3.66,-8.57 6.99,-10.809 l 0.25,-0.171 c 5.4,-3.489 13.05,-3.161 21.45,1.671 16.3,9.391 29.53,32.258 29.53,51.141 0,9.149 -3.25,15.469 -8.32,18.719 l 0.08,0.082 -1.41,0.828 h -0.08 c -3.58,1.578 -7.82,1.828 -12.56,0.5 -2.33,-0.668 -4.74,-1.75 -7.24,-3.16 -16.3,-9.399 -29.52,-32.27 -29.52,-51.059"
         style="fill:#33535f;fill-opacity:1;fill-rule:nonzero;stroke:none"
         id="path432" />
      <path
         d="m 3690.48,897.98 c 4.65,2.661 9.15,3.989 13.14,3.989 3.07,0 5.9,-0.828 8.31,-2.328 l 0.75,-0.411 19.05,-10.98 c -3.58,1.578 -7.82,1.828 -12.56,0.5 -2.33,-0.668 -4.74,-1.75 -7.24,-3.16 -16.3,-9.399 -29.52,-32.27 -29.52,-51.059 0,-2.832 0.33,-5.41 0.83,-7.742 1.25,-4.91 3.66,-8.57 6.99,-10.809 l -19.55,11.309 -0.33,0.172 -1.66,0.988 -0.5,0.34 c -4.49,3.32 -7.24,9.641 -7.24,18.133 0,18.789 13.23,41.656 29.53,51.058"
         style="fill:#17282f;fill-opacity:1;fill-rule:nonzero;stroke:none"
         id="path434" />
      <path
         d="m 3625.44,595.719 c 0,-2.821 -0.33,-5.399 -0.83,-7.731 -1.25,-4.906 -3.66,-8.566 -6.99,-10.808 l -0.25,-0.168 c -5.4,-3.492 -13.06,-3.16 -21.45,1.66 -16.31,9.398 -29.53,32.269 -29.53,51.148 0,9.149 3.24,15.469 8.32,18.711 l -0.08,0.09 1.41,0.828 h 0.08 c 3.58,1.582 7.82,1.832 12.56,0.5 2.33,-0.668 4.74,-1.75 7.24,-3.16 16.3,-9.398 29.52,-32.269 29.52,-51.07"
         style="fill:#33535f;fill-opacity:1;fill-rule:nonzero;stroke:none"
         id="path436" />
      <path
         d="m 3617.37,659.18 c -4.66,2.66 -9.15,3.992 -13.14,3.992 -3.08,0 -5.9,-0.832 -8.31,-2.332 l -0.75,-0.41 -19.05,-10.981 c 3.58,1.582 7.82,1.832 12.56,0.5 2.33,-0.668 4.74,-1.75 7.24,-3.16 16.3,-9.398 29.52,-32.269 29.52,-51.07 0,-2.821 -0.33,-5.399 -0.83,-7.731 -1.25,-4.906 -3.66,-8.566 -6.99,-10.808 l 19.54,11.308 0.34,0.16 1.66,1 0.5,0.34 c 4.49,3.321 7.24,9.641 7.24,18.133 0,18.789 -13.23,41.66 -29.53,51.059"
         style="fill:#17282f;fill-opacity:1;fill-rule:nonzero;stroke:none"
         id="path438" />
      <path
         d="m 3832.76,697.281 c 0,-2.832 -0.33,-5.41 -0.83,-7.742 -1.25,-4.898 -3.66,-8.559 -6.99,-10.809 l -0.24,-0.171 c -5.41,-3.489 -13.06,-3.161 -21.46,1.671 -16.3,9.399 -29.53,32.27 -29.53,51.141 0,9.149 3.25,15.469 8.32,18.719 l -0.08,0.082 1.41,0.828 h 0.08 c 3.58,1.578 7.82,1.828 12.56,0.5 2.33,-0.668 4.74,-1.75 7.24,-3.16 16.3,-9.399 29.52,-32.27 29.52,-51.059"
         style="fill:#33535f;fill-opacity:1;fill-rule:nonzero;stroke:none"
         id="path440" />
      <path
         d="m 3824.7,760.73 c -4.66,2.661 -9.15,3.989 -13.15,3.989 -3.07,0 -5.9,-0.828 -8.31,-2.321 l -0.75,-0.418 -19.05,-10.98 c 3.58,1.578 7.82,1.828 12.56,0.5 2.33,-0.668 4.74,-1.75 7.24,-3.16 16.3,-9.399 29.52,-32.27 29.52,-51.059 0,-2.832 -0.33,-5.41 -0.83,-7.742 -1.25,-4.898 -3.66,-8.559 -6.99,-10.809 l 19.55,11.309 0.33,0.172 1.66,0.988 0.5,0.34 c 4.49,3.332 7.24,9.652 7.24,18.133 0,18.789 -13.23,41.656 -29.52,51.058"
         style="fill:#17282f;fill-opacity:1;fill-rule:nonzero;stroke:none"
         id="path442" />
      <path
         d="m 3432.01,821.832 c 0,-2.832 -0.34,-5.41 -0.84,-7.742 -1.24,-4.899 -3.65,-8.559 -6.98,-10.809 l -0.25,-0.16 c -5.41,-3.5 -13.06,-3.16 -21.46,1.66 -16.3,9.399 -29.52,32.27 -29.52,51.149 0,9.148 3.24,15.468 8.31,18.711 l -0.08,0.078 1.41,0.84 h 0.09 c 3.57,1.57 7.82,1.832 12.56,0.492 2.32,-0.66 4.74,-1.742 7.23,-3.16 16.3,-9.391 29.53,-32.262 29.53,-51.059"
         style="fill:#33535f;fill-opacity:1;fill-rule:nonzero;stroke:none"
         id="path444" />
      <path
         d="m 3423.94,885.281 c -4.66,2.668 -9.15,4 -13.14,4 -3.08,0 -5.91,-0.84 -8.32,-2.332 l -0.75,-0.418 -19.04,-10.972 c 3.57,1.57 7.82,1.832 12.56,0.492 2.32,-0.66 4.74,-1.742 7.23,-3.16 16.3,-9.391 29.53,-32.262 29.53,-51.059 0,-2.832 -0.34,-5.41 -0.84,-7.742 -1.24,-4.899 -3.65,-8.559 -6.98,-10.809 l 19.54,11.309 0.34,0.172 1.66,1 0.5,0.328 c 4.49,3.332 7.23,9.648 7.23,18.129 0,18.801 -13.22,41.672 -29.52,51.062"
         style="fill:#17282f;fill-opacity:1;fill-rule:nonzero;stroke:none"
         id="path446" />
      <path
         d="m 3608.25,884.23 105.41,30.219 v -22.5 l -105.41,-60.808 v 53.089"
         style="fill:#f3f2f1;fill-opacity:1;fill-rule:nonzero;stroke:none"
         id="path448" />
      <path
         d="m 3608.25,884.23 -10.4,6.372 105.73,28.886 10.08,-5.039 -105.41,-30.219"
         style="fill:#fafaf9;fill-opacity:1;fill-rule:nonzero;stroke:none"
         id="path450" />
      <path
         d="m 3562.65,817.051 -149.44,55.988 v 22.793 l 149.44,-13.363 v -65.418"
         style="fill:#f3f2f1;fill-opacity:1;fill-rule:nonzero;stroke:none"
         id="path452" />
      <path
         d="m 3413.21,895.832 10.98,2.898 147.34,-9.519 -8.88,-6.742 -149.44,13.363"
         style="fill:#fafaf9;fill-opacity:1;fill-rule:nonzero;stroke:none"
         id="path454" />
      <path
         d="m 3558.65,824.25 c 0,-16.93 51.98,-16.93 51.98,0 v 147.781 h -51.98 V 824.25"
         style="fill:#fafaf9;fill-opacity:1;fill-rule:nonzero;stroke:none"
         id="path456" />
      <path
         d="m 3597.6,862.699 28.59,-185.558 h -19.54 l -26.74,185.558 c 6.7,-1.898 12.38,-1.398 17.69,0"
         style="fill:#fafaf9;fill-opacity:1;fill-rule:nonzero;stroke:none"
         id="path458" />
      <path
         d="m 3579.91,862.699 v -50.961 l 26.74,-166.019 v 31.422 l -26.74,185.558"
         style="fill:#f3f2f1;fill-opacity:1;fill-rule:nonzero;stroke:none"
         id="path460" />
      <path
         d="m 3606.65,645.719 h 19.54 v 31.422 h -19.54 v -31.422"
         style="fill:#e7e8e5;fill-opacity:1;fill-rule:nonzero;stroke:none"
         id="path462" />
      <path
         d="M 3571.02,813.25 3378.31,712.238 v 31.114 l 192.71,119.207 V 813.25"
         style="fill:#f3f2f1;fill-opacity:1;fill-rule:nonzero;stroke:none"
         id="path464" />
      <path
         d="m 3571.02,862.559 c -4.61,0.652 -8.86,2.211 -12.37,5.601 l -192.37,-116.691 12.03,-8.117 192.71,119.207"
         style="fill:#fafaf9;fill-opacity:1;fill-rule:nonzero;stroke:none"
         id="path466" />
      <path
         d="m 3378.31,712.238 v 31.114 l -12.03,8.117 V 721.32 l 12.03,-9.082"
         style="fill:#e7e8e5;fill-opacity:1;fill-rule:nonzero;stroke:none"
         id="path468" />
      <path
         d="m 3813.97,747.922 -205.88,70.488 v 46.238 l 205.88,-85.628 v -31.098"
         style="fill:#f3f2f1;fill-opacity:1;fill-rule:nonzero;stroke:none"
         id="path470" />
      <path
         d="m 3608.09,864.648 c 1.68,0.454 2.4,3.454 2.54,7.993 l 209.43,-91.11 -6.09,-2.511 -205.88,85.628"
         style="fill:#fafaf9;fill-opacity:1;fill-rule:nonzero;stroke:none"
         id="path472" />
      <path
         d="M 3820.06,781.531 V 751.43 l -6.09,-3.508 v 31.098 l 6.09,2.511"
         style="fill:#e7e8e5;fill-opacity:1;fill-rule:nonzero;stroke:none"
         id="path474" />
      <path
         d="m 3628.65,1229.48 h -88.03 V 924.691 c 0,-25.293 88.03,-25.293 88.03,0 v 304.789"
         style="fill:#ededeb;fill-opacity:1;fill-rule:nonzero;stroke:none"
         id="path476" />
      <path
         d="m 3245.68,1202.15 v 0.01 c 0,15.72 8.38,30.23 21.99,38.09 l 307.95,177.78 c 13.61,7.86 30.37,7.86 43.98,0 l 307.93,-177.79 c 13.61,-7.86 21.99,-22.38 21.99,-38.09 L 3597.61,998.949 3245.68,1202.15"
         style="fill:#26b6a6;fill-opacity:1;fill-rule:nonzero;stroke:none"
         id="path478" />
      <path
         d="m 3245.68,1202.16 v -25.44 l 330.16,-190.618 c 6.74,-3.911 14.23,-5.821 21.71,-5.821 7.57,0 15.05,1.91 21.79,5.821 l 330.17,190.618 v 25.44 l -330.17,-190.61 c -6.74,-3.91 -14.22,-5.91 -21.79,-5.91 -7.48,0 -14.97,2 -21.71,5.91 l -330.16,190.61"
         style="fill:#fafaf9;fill-opacity:1;fill-rule:nonzero;stroke:none"
         id="path480" />
      <path
         d="m 3245.68,1202.16 v -25.44 l 330.16,-190.618 c 6.74,-3.911 14.23,-5.821 21.71,-5.821 v 25.359 c -7.48,0 -14.97,2 -21.71,5.91 l -330.16,190.61"
         style="fill:#f3f2f1;fill-opacity:1;fill-rule:nonzero;stroke:none"
         id="path482" />
      <path
         d="m 3949.52,1202.15 c 0,0.05 0,0.11 0,0.17 0,-0.06 0,-0.12 0,-0.17 m 0,0.3 c 0,0.01 0,0.02 0,0.02 0,0 0,-0.01 0,-0.02"
         style="fill:#d1d3d0;fill-opacity:1;fill-rule:nonzero;stroke:none"
         id="path484" />
      <path
         d="m 3597.55,1005.64 c -7.48,0 -14.97,2 -21.71,5.91 l -330.16,190.61 c 0,6.94 1.72,13.61 4.71,19.61 l 332.68,-192.07 c 4.48,-2.59 9.48,-3.88 14.49,-3.88 5,0 10,1.29 14.48,3.87 l 332.8,191.99 c 2.93,-5.89 4.63,-12.41 4.68,-19.21 0,0 0,-0.01 0,-0.02 0,-0.04 0,-0.09 0,-0.13 0,-0.06 0,-0.12 0,-0.17 v 0 l -0.01,-0.01 v 0.02 l -330.17,-190.61 c -6.74,-3.91 -14.22,-5.91 -21.79,-5.91"
         style="fill:#1db3a0;fill-opacity:1;fill-rule:nonzero;stroke:none"
         id="path486" />
      <path
         d="m 3597.61,998.949 -0.06,0.039 v 6.652 c -7.48,0 -14.97,2 -21.71,5.91 l -330.16,190.61 v 0 l 330.16,-190.61 c 6.74,-3.91 14.23,-5.91 21.71,-5.91 7.57,0 15.05,2 21.79,5.91 l 330.17,190.61 v -0.02 l -351.9,-203.191"
         style="fill:#dbdcd9;fill-opacity:1;fill-rule:nonzero;stroke:none"
         id="path488" />
      <path
         d="m 3597.55,998.988 -351.87,203.162 v 0.01 0 l 330.16,-190.61 c 6.74,-3.91 14.23,-5.91 21.71,-5.91 v -6.652"
         style="fill:#d5d7d4;fill-opacity:1;fill-rule:nonzero;stroke:none"
         id="path490" />
      <path
         d="m 3842.99,1340.77 c 0,0 -285.66,86.2 -335.32,99.79 -49.66,13.59 -144.92,36.49 -172.76,24.02 -27.83,-12.47 -41.96,-26.93 -44.52,-67.09 -0.53,-7.55 0,-44.3 0,-44.3 0,0 138.07,-42.73 251.19,-42.73 113.11,0 301.41,30.31 301.41,30.31"
         style="fill:#17282f;fill-opacity:1;fill-rule:nonzero;stroke:none"
         id="path492" />
      <path
         d="m 3598.84,1826.27 18.99,-102.43 105.01,-12.11 -15.15,141.36 -108.85,-26.82"
         style="fill:#f6879f;fill-opacity:1;fill-rule:nonzero;stroke:none"
         id="path494" />
      <path
         d="m 3500.81,1908.04 c 0,0 -13.79,-42.24 -9.57,-44.84 4.21,-2.6 22.97,-1.34 22.97,-1.34 l -13.4,46.18"
         style="fill:#f47089;fill-opacity:1;fill-rule:nonzero;stroke:none"
         id="path496" />
      <path
         d="m 3527.86,2043.46 c -18.09,-19.03 -35.28,-50.9 -27.7,-131.6 8.3,-88.44 34.74,-112.02 45.88,-117.21 16.64,-7.75 73.26,5.82 91.67,19.38 23.05,16.98 66.44,59.25 77.75,111.36 13.3,61.29 -3.72,130.94 -48.51,145.02 -63.02,19.82 -123.78,-10.84 -139.09,-26.95"
         style="fill:#f6879f;fill-opacity:1;fill-rule:nonzero;stroke:none"
         id="path498" />
      <path
         d="m 3486.58,1999.94 c 10.74,-20.26 31.03,-70.62 88.5,-84.91 0,0 3.17,34.33 31.63,34.67 28.64,0.34 38.16,-34.7 24.03,-59.2 -14.14,-24.5 -31.9,-18.85 -31.9,-18.85 0,0 2.85,-48.22 37.68,-65.45 0,0 41.8,-19.04 79.95,5.3 17.17,10.95 37,58.42 47.24,96.54 21.65,80.65 17.8,142.39 -33.48,154.93 -10.78,33.81 -28.15,44.68 -60.4,46.81 -69.43,4.58 -114.31,-46.81 -172.03,-46.81 -30.11,0 -23.48,-39.89 -11.22,-63.03"
         style="fill:#17282f;fill-opacity:1;fill-rule:nonzero;stroke:none"
         id="path500" />
      <path
         d="m 3728.96,2057.23 34.75,14.88 c -4.11,9.6 -15.22,14.04 -24.82,9.93 -9.59,-4.1 -14.04,-15.22 -9.93,-24.81"
         style="fill:#17282f;fill-opacity:1;fill-rule:nonzero;stroke:none"
         id="path502" />
      <path
         d="m 3842.29,1375.1 c -0.1,-54.87 5.16,-111.97 -17.72,-152.18 -22.11,-38.87 -126.54,-122.96 -243.27,-103.31 -76.26,12.83 -322.7,106.75 -322.7,106.75 0,0 -109.07,40.34 -109.57,69.03 -0.12,7.02 -0.75,14.31 -0.29,21.91 2.3,38.17 17.73,79.31 97.56,77.19 87.19,-2.31 345.88,-44.68 345.88,-44.68 l 250.11,25.29"
         style="fill:#263e47;fill-opacity:1;fill-rule:nonzero;stroke:none"
         id="path504" />
      <path
         d="m 3821.99,1729.82 c -9.43,28.67 -45.79,59.86 -82.18,53.1 -66.85,-12.41 -139.97,-34.07 -159.36,-39.79 h -0.02 c 0,0 8.7,-147.29 -66.88,-191.88 l -9.97,-187.59 c 0,0 18.72,-37.36 47.58,-55.72 31.22,-19.85 74.67,-49.6 153.16,-43.09 93.17,7.72 138.67,75.92 138.67,75.92 0,0 -0.85,177.25 -3.85,256.59 -2.55,67.41 -10.68,112.78 -17.15,132.46"
         style="fill:#33535f;fill-opacity:1;fill-rule:nonzero;stroke:none"
         id="path506" />
      <path
         d="m 3511.62,1514.91 c 0,0 39.49,40.96 53.39,88.51 0,0 0,-69.56 -54.16,-107.14 l 0.77,18.63"
         style="fill:#263e47;fill-opacity:1;fill-rule:nonzero;stroke:none"
         id="path508" />
      <path
         d="m 3580.43,1743.13 c -41.26,-12.38 -66.39,-14.62 -111.97,-84.75 -45.59,-70.13 -145.46,-209.25 -155.35,-225.96 -13.75,-23.26 -19.68,-50.94 -7.8,-72.31 11.08,-19.94 43.37,-11.21 88.6,28.48 43.75,38.39 130.44,146.96 130.44,146.96 0,0 45.19,98.94 56.08,207.58"
         style="fill:#f6879f;fill-opacity:1;fill-rule:nonzero;stroke:none"
         id="path510" />
      <path
         d="m 3580.43,1743.13 c 0,0 -36.78,-7.69 -59.65,-18.88 -7.03,-3.45 -30.22,-12.34 -45.09,-37.04 -31.9,-52.99 -77.5,-128.43 -77.5,-128.43 0,0 -7.79,-65.69 71.99,-88.59 l 42.44,45.79 c 17.29,18.66 31.74,39.82 42.28,62.98 17.97,39.49 38.47,102.19 25.53,164.17"
         style="fill:#33535f;fill-opacity:1;fill-rule:nonzero;stroke:none"
         id="path512" />
      <path
         d="m 3319.2,1350.29 c -38.17,4.62 -123.7,121.84 -152.23,159.12 -28.52,37.27 -52.35,59.36 -78.09,73.48 -25.74,14.12 -47.97,36.36 -54.98,81.26 -6.52,41.81 32.44,68.45 64.29,26.43 20.22,-26.68 40.63,-43.54 41.71,-39.09 1.07,4.46 -6.29,23.03 -6.11,42.39 0.22,23.29 16.52,7.98 21.39,-0.18 4.88,-8.17 10.57,-21.45 17.22,-38.48 8.13,-20.84 4.77,-41.94 14.68,-56.15 9.9,-14.21 142.89,-141.62 142.89,-141.62 l -10.77,-107.16"
         style="fill:#f6879f;fill-opacity:1;fill-rule:nonzero;stroke:none"
         id="path514" />
      <path
         d="m 3966.61,1710.27 v -393.31 l -312.24,-180.95 v 393.11 l 312.24,181.15"
         style="fill:#26b6a6;fill-opacity:1;fill-rule:nonzero;stroke:none"
         id="path516" />
      <path
         d="m 3654.37,1136.01 c 0,0 0,310.13 0,360.54 0,17.07 5.17,25.57 12.02,29.33 4.53,2.79 9.35,3.92 14.16,3.92 20.48,0 41.1,-20.39 41.1,-20.39 l 0.09,26.19 v 0 l 244.87,141.79 -244.87,-141.79 -0.09,-26.19 244.96,142.34 v -334.79 l -312.24,-180.95"
         style="fill:#1db3a0;fill-opacity:1;fill-rule:nonzero;stroke:none"
         id="path518" />
      <path
         d="m 3625.98,1152.4 28.39,-16.39 c 0,0 0,310.13 0,360.54 0,17.07 5.17,25.57 12.02,29.33 23.79,14.66 55.26,-16.47 55.26,-16.47 l 0.09,26.19 301.63,174.66 c -28.38,16.39 -47,27.14 -104.26,-5.35 -57.26,-32.49 -225.33,-129.66 -251.91,-146.06 -21.31,-13.14 -41.22,-28.46 -41.22,-64.18 0,-61.89 0,-342.27 0,-342.27"
         style="fill:#26b6a6;fill-opacity:1;fill-rule:nonzero;stroke:none"
         id="path520" />
      <path
         d="m 3835.06,1656.71 c -0.01,0.06 -0.01,0.12 -0.02,0.17 31.77,18.23 60.93,34.89 80.07,45.76 -19.15,-10.89 -48.3,-27.62 -80.05,-45.93"
         style="fill:#f4f4f2;fill-opacity:1;fill-rule:nonzero;stroke:none"
         id="path522" />
      <path
         d="m 3667.2,1558.85 c 17.53,11.39 98.83,58.43 167.84,98.03 0.01,-0.05 0.01,-0.11 0.02,-0.17 -68.91,-39.73 -150.07,-86.88 -167.86,-97.86"
         style="fill:#7d969b;fill-opacity:1;fill-rule:nonzero;stroke:none"
         id="path524" />
      <path
         d="m 4022.72,1710.64 c -0.05,0.03 -0.1,0.06 -0.15,0.09 0.05,-0.03 0.1,-0.06 0.15,-0.09 m -0.24,0.14 c -14.56,8.4 -26.65,15.19 -42.94,15.19 v 0 c 16.3,0 28.38,-6.79 42.94,-15.19"
         style="fill:#f4f4f2;fill-opacity:1;fill-rule:nonzero;stroke:none"
         id="path526" />
      <path
         d="m 3721.74,1535.6 c -10.12,11.13 -30.23,23.26 -53.67,23.26 -0.29,0 -0.58,0 -0.87,-0.01 v 0 c 17.79,10.98 98.95,58.13 167.86,97.86 31.75,18.31 60.9,35.04 80.05,45.93 1.39,0.79 2.72,1.55 4,2.27 27.08,15.37 45.52,21.06 60.43,21.06 16.29,0 28.38,-6.79 42.94,-15.19 0.03,-0.02 0.06,-0.03 0.09,-0.05 0.05,-0.03 0.1,-0.06 0.15,-0.09 0.22,-0.12 0.43,-0.25 0.65,-0.38 L 3721.74,1535.6"
         style="fill:#5cc8bc;fill-opacity:1;fill-rule:nonzero;stroke:none"
         id="path528" />
      <path
         d="m 3721.65,1509.41 301.72,175.33 v 25.52 l -301.63,-174.66 -0.09,-26.19"
         style="fill:#26b6a6;fill-opacity:1;fill-rule:nonzero;stroke:none"
         id="path530" />
      <path
         d="m 3721.65,1509.41 0.09,26.19 301.63,174.66 v -25.52 l -301.72,-175.33"
         style="fill:#14b099;fill-opacity:1;fill-rule:nonzero;stroke:none"
         id="path532" />
      <path
         d="m 3726.18,1010.88 c 4.69,0 9.39,1.23 13.66,3.7 8.56,4.94 13.66,13.78 13.66,23.65 v 206.32 c 0,7.72 -6.26,13.98 -13.98,13.98 -7.71,0 -13.97,-6.26 -13.97,-13.98 v -205.22 l -22.23,12.84 c -6.68,3.86 -15.22,1.57 -19.09,-5.12 -3.85,-6.68 -1.57,-15.23 5.12,-19.09 l 23.17,-13.39 c 4.28,-2.46 8.97,-3.69 13.66,-3.69"
         style="fill:#e1e2df;fill-opacity:1;fill-rule:nonzero;stroke:none"
         id="path534" />
      <path
         d="m 3896.88,1110.36 c 4.7,0 9.39,1.23 13.67,3.71 8.55,4.94 13.66,13.77 13.66,23.65 v 206.32 c 0,7.71 -6.26,13.97 -13.98,13.97 -7.72,0 -13.97,-6.26 -13.97,-13.97 v -205.22 l -22.23,12.83 c -6.68,3.86 -15.23,1.57 -19.1,-5.12 -3.85,-6.68 -1.56,-15.23 5.12,-19.09 l 23.18,-13.38 c 4.28,-2.47 8.97,-3.7 13.65,-3.7"
         style="fill:#e1e2df;fill-opacity:1;fill-rule:nonzero;stroke:none"
         id="path536" />
    </g>
  </g>
</svg>
